<svg id="SvgjsSvg1001" width="288" height="288" xmlns="http://www.w3.org/2000/svg" version="1.1" xmlns:xlink="http://www.w3.org/1999/xlink" xmlns:svgjs="http://svgjs.com/svgjs"><defs id="SvgjsDefs1002"></defs><g id="SvgjsG1008" transform="matrix(1,0,0,1,0,0)"><svg xmlns="http://www.w3.org/2000/svg" width="288" height="288" viewBox="0 0 400 400"><path fill="#ececec" fill-rule="evenodd" d="M67.467 53.467 C 67.320 53.613,67.200 117.603,67.200 195.667 L 67.200 337.600 209.400 337.600 L 351.600 337.600 351.600 195.400 L 351.600 53.200 209.667 53.200 C 131.603 53.200,67.613 53.320,67.467 53.467 M336.957 68.633 C 337.465 69.955,337.229 322.211,336.720 322.720 C 336.211 323.229,83.955 323.465,82.633 322.957 C 81.972 322.704,81.607 68.926,82.267 68.267 C 82.926 67.607,336.704 67.972,336.957 68.633 M202.611 106.782 C 202.469 107.012,201.748 107.200,201.009 107.200 C 200.270 107.200,199.155 107.453,198.532 107.763 C 197.910 108.073,196.860 108.544,196.200 108.809 C 195.540 109.075,194.730 109.447,194.400 109.635 C 194.070 109.824,193.223 110.269,192.518 110.626 C 191.814 110.982,191.026 111.527,190.769 111.837 C 190.512 112.147,190.082 112.400,189.812 112.400 C 187.399 112.400,177.485 125.984,177.184 129.702 C 176.953 132.553,177.228 133.628,178.563 135.106 C 180.119 136.829,183.094 137.899,184.393 137.204 C 184.808 136.982,185.443 136.800,185.804 136.800 C 187.037 136.800,189.117 134.146,189.802 131.700 C 189.940 131.205,190.222 130.800,190.427 130.800 C 190.632 130.800,190.800 130.526,190.800 130.192 C 190.800 128.465,195.314 123.576,198.200 122.176 C 199.080 121.749,199.860 121.265,199.933 121.100 C 200.007 120.935,200.401 120.800,200.810 120.800 C 201.218 120.800,201.654 120.636,201.778 120.435 C 201.903 120.234,202.722 119.948,203.600 119.800 C 204.478 119.652,205.297 119.366,205.422 119.165 C 205.730 118.666,213.490 118.698,213.800 119.200 C 213.936 119.420,214.414 119.600,214.862 119.600 C 215.310 119.600,216.154 119.858,216.738 120.174 C 217.322 120.490,218.565 121.064,219.500 121.451 C 220.435 121.838,221.200 122.299,221.200 122.477 C 221.200 122.655,221.431 122.800,221.714 122.800 C 222.364 122.800,226.400 126.859,226.400 127.513 C 226.400 127.781,226.565 128.000,226.766 128.000 C 226.967 128.000,227.903 129.572,228.846 131.494 L 230.561 134.988 230.547 140.220 C 230.535 144.475,230.397 145.709,229.809 146.826 C 228.590 149.141,228.400 149.573,228.400 150.025 C 228.400 150.781,224.827 155.141,223.281 156.271 C 222.467 156.867,221.620 157.551,221.400 157.792 C 220.751 158.502,216.592 160.400,215.684 160.400 C 215.224 160.400,214.736 160.580,214.600 160.800 C 214.437 161.063,198.263 161.200,167.376 161.200 L 120.400 161.200 120.400 167.609 L 120.400 174.019 168.580 173.909 C 206.473 173.823,216.867 173.693,217.260 173.300 C 217.535 173.025,218.444 172.800,219.280 172.800 C 220.116 172.800,220.800 172.632,220.800 172.427 C 220.800 172.222,221.205 171.937,221.700 171.795 C 223.108 171.390,226.759 169.590,227.016 169.174 C 227.143 168.968,227.531 168.800,227.877 168.800 C 228.511 168.800,237.595 160.084,237.598 159.473 C 237.599 159.294,238.029 158.574,238.554 157.873 C 239.078 157.173,239.630 156.195,239.781 155.700 C 239.931 155.205,240.222 154.800,240.427 154.800 C 240.632 154.800,240.800 154.491,240.800 154.113 C 240.800 153.494,241.551 151.110,242.411 149.000 C 243.839 145.494,243.660 133.338,242.137 130.420 C 241.844 129.859,241.604 129.173,241.602 128.895 C 241.601 128.617,241.435 128.077,241.234 127.695 C 241.032 127.313,240.577 126.333,240.223 125.517 C 239.869 124.701,239.403 123.926,239.189 123.793 C 238.975 123.661,238.800 123.247,238.800 122.872 C 238.800 122.498,238.350 121.707,237.800 121.113 C 237.250 120.520,236.800 119.892,236.799 119.717 C 236.798 119.354,229.756 112.400,229.388 112.400 C 229.255 112.400,228.557 111.950,227.836 111.400 C 227.114 110.850,226.237 110.400,225.886 110.400 C 225.535 110.400,225.139 110.225,225.007 110.011 C 224.874 109.797,224.189 109.372,223.483 109.067 C 222.777 108.762,221.660 108.280,221.000 107.997 C 218.028 106.719,203.253 105.743,202.611 106.782 M120.400 195.600 L 120.400 202.000 191.576 202.000 C 238.596 202.000,262.837 202.136,263.000 202.400 C 263.136 202.620,263.946 202.800,264.800 202.800 C 265.654 202.800,266.464 202.980,266.600 203.200 C 266.736 203.420,267.184 203.600,267.595 203.600 C 268.006 203.600,268.613 203.870,268.943 204.200 C 269.273 204.530,269.916 204.800,270.371 204.800 C 270.827 204.800,271.200 204.960,271.200 205.157 C 271.200 205.353,271.650 205.626,272.200 205.764 C 272.750 205.902,273.200 206.192,273.200 206.408 C 273.200 206.623,273.396 206.800,273.636 206.800 C 273.876 206.800,275.082 207.700,276.316 208.800 C 277.550 209.900,278.704 210.800,278.880 210.800 C 279.056 210.800,279.200 210.993,279.200 211.228 C 279.200 211.464,279.920 212.510,280.800 213.554 C 281.680 214.598,282.400 215.755,282.400 216.126 C 282.400 216.497,282.580 216.800,282.800 216.800 C 283.020 216.800,283.200 217.138,283.200 217.551 C 283.200 217.964,283.470 218.526,283.800 218.800 C 284.130 219.074,284.400 219.715,284.400 220.225 C 284.400 220.735,284.580 221.264,284.800 221.400 C 285.020 221.536,285.200 222.321,285.200 223.144 C 285.200 223.967,285.407 224.847,285.660 225.100 C 286.467 225.907,286.620 233.405,285.853 234.575 C 285.494 235.123,285.200 236.198,285.200 236.962 C 285.200 237.727,285.020 238.464,284.800 238.600 C 284.580 238.736,284.400 239.265,284.400 239.775 C 284.400 240.285,284.130 240.926,283.800 241.200 C 283.470 241.474,283.200 242.059,283.200 242.500 C 283.200 244.864,274.079 254.400,271.817 254.400 C 271.478 254.400,271.200 254.580,271.200 254.800 C 271.200 255.020,270.862 255.200,270.449 255.200 C 270.036 255.200,269.474 255.470,269.200 255.800 C 268.926 256.130,268.285 256.400,267.775 256.400 C 267.265 256.400,266.736 256.580,266.600 256.800 C 266.464 257.020,265.688 257.206,264.876 257.213 C 264.064 257.220,263.051 257.490,262.624 257.813 C 261.518 258.649,253.064 258.637,251.454 257.798 C 250.824 257.469,249.789 257.200,249.154 257.200 C 248.519 257.200,248.000 257.040,248.000 256.845 C 248.000 256.649,247.402 256.377,246.670 256.240 C 245.939 256.102,244.956 255.632,244.487 255.195 C 244.017 254.758,243.511 254.400,243.362 254.400 C 241.492 254.400,235.439 247.182,232.795 241.800 C 230.449 237.025,230.383 236.934,228.531 235.900 C 226.521 234.778,224.190 234.983,222.346 236.442 C 219.718 238.524,218.294 242.750,219.800 244.000 C 220.130 244.274,220.400 244.750,220.400 245.057 C 220.400 246.187,223.665 252.284,225.406 254.407 C 226.393 255.610,227.200 256.736,227.200 256.909 C 227.200 257.322,231.865 261.999,232.280 262.003 C 232.456 262.005,233.263 262.635,234.073 263.403 C 234.884 264.172,235.677 264.800,235.836 264.800 C 235.994 264.800,236.714 265.250,237.436 265.800 C 238.157 266.350,238.911 266.800,239.112 266.800 C 239.663 266.800,241.952 267.998,242.216 268.425 C 242.343 268.631,242.876 268.800,243.400 268.800 C 243.924 268.800,244.464 268.980,244.600 269.200 C 244.736 269.420,245.422 269.601,246.124 269.602 C 246.826 269.604,247.939 269.886,248.598 270.230 C 250.001 270.961,264.035 271.188,264.907 270.493 C 265.178 270.278,266.251 269.978,267.291 269.827 C 268.331 269.677,269.286 269.384,269.414 269.177 C 269.542 268.970,270.059 268.800,270.562 268.800 C 271.388 268.800,273.000 268.195,274.895 267.174 C 275.277 266.968,275.862 266.800,276.195 266.800 C 276.528 266.800,276.800 266.623,276.800 266.408 C 276.800 266.192,277.250 265.902,277.800 265.764 C 278.350 265.626,278.800 265.397,278.800 265.254 C 278.800 265.112,279.335 264.759,279.988 264.470 C 281.293 263.892,282.410 262.934,286.600 258.802 C 289.785 255.661,291.600 253.687,291.600 253.366 C 291.600 253.246,292.029 252.574,292.554 251.873 C 293.078 251.173,293.630 250.195,293.781 249.700 C 293.931 249.205,294.222 248.800,294.427 248.800 C 294.632 248.800,294.800 248.558,294.800 248.261 C 294.800 247.760,295.557 245.917,296.426 244.305 C 296.632 243.923,296.800 243.248,296.800 242.805 C 296.800 242.362,296.962 242.000,297.161 242.000 C 297.359 242.000,297.647 240.920,297.800 239.599 C 297.953 238.279,298.241 237.098,298.439 236.976 C 298.902 236.690,298.915 223.318,298.453 223.033 C 298.262 222.915,297.987 221.921,297.841 220.825 C 297.696 219.730,297.402 218.725,297.188 218.593 C 296.975 218.461,296.800 217.941,296.800 217.438 C 296.800 216.612,296.195 215.000,295.174 213.105 C 294.968 212.723,294.800 212.138,294.800 211.805 C 294.800 211.472,294.632 211.200,294.427 211.200 C 294.222 211.200,293.927 210.795,293.771 210.300 C 293.068 208.058,282.676 196.400,281.381 196.400 C 281.252 196.400,280.557 195.950,279.836 195.400 C 279.114 194.850,278.237 194.400,277.886 194.400 C 277.535 194.400,277.139 194.225,277.007 194.011 C 276.874 193.797,276.099 193.332,275.283 192.977 C 274.467 192.623,273.209 192.078,272.486 191.767 C 271.764 191.455,270.830 191.200,270.410 191.200 C 269.990 191.200,269.536 191.020,269.400 190.800 C 269.264 190.580,268.578 190.399,267.876 190.398 C 267.174 190.396,266.084 190.126,265.454 189.798 C 264.450 189.274,255.404 189.200,192.354 189.200 L 120.400 189.200 120.400 195.600 M120.400 223.168 L 120.400 229.600 145.900 229.602 C 167.739 229.605,171.565 229.691,172.546 230.202 C 173.176 230.531,174.093 230.800,174.584 230.800 C 175.556 230.800,177.844 231.824,178.216 232.425 C 178.343 232.631,178.771 232.800,179.168 232.800 C 179.564 232.800,180.226 233.250,180.639 233.800 C 181.052 234.350,181.513 234.800,181.664 234.800 C 181.968 234.800,184.400 237.153,184.400 237.447 C 184.400 237.550,184.715 237.974,185.100 238.390 C 186.072 239.440,187.521 242.440,188.583 245.600 C 189.807 249.241,189.134 256.388,187.255 259.712 C 186.785 260.544,186.400 261.475,186.400 261.781 C 186.400 263.970,176.894 271.200,174.017 271.200 C 173.398 271.200,172.376 271.469,171.746 271.798 C 170.272 272.566,165.743 272.568,164.400 271.800 C 163.850 271.486,162.860 271.213,162.200 271.195 C 161.540 271.177,160.370 270.823,159.600 270.409 C 158.830 269.996,157.649 269.398,156.976 269.081 C 155.614 268.439,150.515 263.457,149.936 262.202 C 148.442 258.964,146.076 257.200,143.227 257.200 C 142.138 257.200,141.129 257.391,140.985 257.625 C 140.840 257.858,140.287 258.215,139.754 258.418 C 139.221 258.620,138.620 259.221,138.418 259.754 C 138.215 260.287,137.858 260.840,137.625 260.985 C 136.971 261.389,137.088 266.209,137.766 266.771 C 138.077 267.030,138.693 267.997,139.135 268.920 C 139.577 269.844,140.492 271.196,141.169 271.925 C 141.846 272.653,142.400 273.352,142.400 273.478 C 142.400 273.603,142.805 274.056,143.300 274.483 C 143.795 274.911,144.740 275.747,145.400 276.341 C 148.573 279.197,154.818 282.800,156.595 282.800 C 157.122 282.800,157.658 282.970,157.786 283.177 C 157.914 283.384,158.827 283.675,159.814 283.823 C 160.802 283.971,161.708 284.252,161.829 284.446 C 162.119 284.915,174.688 284.905,174.978 284.435 C 175.103 284.234,175.961 283.942,176.887 283.785 C 177.812 283.629,178.846 283.366,179.185 283.200 C 185.298 280.210,187.118 279.204,188.400 278.107 C 189.240 277.388,190.014 276.800,190.120 276.800 C 190.373 276.800,194.800 272.371,194.800 272.118 C 194.800 272.011,195.205 271.359,195.700 270.670 C 196.868 269.043,197.363 268.189,198.409 266.000 C 200.830 260.931,200.721 261.280,201.655 255.600 C 202.162 252.515,201.883 244.523,201.247 243.887 C 201.001 243.641,200.800 242.688,200.800 241.769 C 200.800 240.772,200.558 239.897,200.200 239.600 C 199.870 239.326,199.600 238.685,199.600 238.175 C 199.600 237.665,199.420 237.136,199.200 237.000 C 198.980 236.864,198.800 236.486,198.800 236.159 C 198.800 235.832,198.350 235.080,197.800 234.487 C 197.250 233.893,196.800 233.259,196.800 233.077 C 196.800 232.895,196.350 232.157,195.800 231.436 C 195.250 230.714,194.800 230.010,194.800 229.870 C 194.800 229.490,189.639 224.400,189.255 224.400 C 189.073 224.400,188.581 224.020,188.162 223.556 C 187.743 223.092,186.635 222.352,185.700 221.912 C 184.765 221.472,184.000 220.952,184.000 220.756 C 184.000 220.560,183.662 220.400,183.249 220.400 C 182.836 220.400,182.274 220.130,182.000 219.800 C 181.726 219.470,181.085 219.200,180.575 219.200 C 180.065 219.200,179.549 219.041,179.429 218.846 C 179.308 218.652,178.353 218.365,177.305 218.209 C 176.257 218.053,175.147 217.717,174.839 217.463 C 174.430 217.126,166.964 216.964,147.339 216.868 L 120.400 216.737 120.400 223.168 " class="colorececec svgShape"></path><path fill="#0f9d58" fill-rule="evenodd" d="M66.985 53.299 C 66.881 53.575,66.841 117.790,66.898 196.000 L 67.000 338.200 209.251 338.301 C 328.560 338.385,351.574 338.314,351.951 337.859 C 352.283 337.459,352.375 300.004,352.301 195.158 L 352.200 53.000 209.688 52.899 C 95.887 52.819,67.137 52.900,66.985 53.299 M351.901 195.500 L 351.800 337.800 209.500 337.901 L 67.200 338.001 67.200 195.601 L 67.200 53.200 209.601 53.200 L 352.001 53.200 351.901 195.500 M82.667 68.667 C 82.143 69.190,82.356 321.796,82.880 322.320 C 83.579 323.019,335.621 323.019,336.320 322.320 C 337.019 321.621,337.019 69.579,336.320 68.880 C 335.796 68.356,83.190 68.143,82.667 68.667 M335.901 195.501 L 336.001 322.001 209.501 321.901 L 83.000 321.800 82.898 195.800 C 82.841 126.500,82.881 69.575,82.985 69.299 C 83.137 68.900,108.647 68.819,209.488 68.899 L 335.800 69.000 335.901 195.501 M209.000 105.600 C 208.864 105.820,209.134 106.000,209.600 106.000 C 210.066 106.000,210.336 105.820,210.200 105.600 C 210.064 105.380,209.794 105.200,209.600 105.200 C 209.406 105.200,209.136 105.380,209.000 105.600 M211.000 105.600 C 210.864 105.820,211.134 106.000,211.600 106.000 C 212.066 106.000,212.336 105.820,212.200 105.600 C 212.064 105.380,211.794 105.200,211.600 105.200 C 211.406 105.200,211.136 105.380,211.000 105.600 M200.200 106.400 C 200.064 106.620,199.548 106.800,199.053 106.800 C 198.558 106.800,197.804 107.085,197.376 107.433 C 196.611 108.056,196.611 108.061,197.400 107.781 C 197.840 107.624,199.163 107.262,200.340 106.975 C 202.899 106.351,203.386 106.000,201.690 106.000 C 201.007 106.000,200.336 106.180,200.200 106.400 M216.600 106.400 C 217.712 106.878,218.800 106.878,218.800 106.400 C 218.800 106.180,218.125 106.013,217.300 106.028 C 216.097 106.051,215.958 106.124,216.600 106.400 M220.600 107.412 C 222.597 108.131,222.801 108.127,221.824 107.387 C 221.396 107.064,220.586 106.808,220.024 106.818 C 219.176 106.832,219.275 106.934,220.600 107.412 M222.800 108.191 C 222.800 108.477,226.113 110.021,226.308 109.825 C 226.401 109.732,225.706 109.283,224.764 108.828 C 222.924 107.939,222.800 107.899,222.800 108.191 M193.200 109.400 C 192.566 110.163,193.161 110.156,194.176 109.387 C 194.798 108.917,194.828 108.800,194.325 108.800 C 193.980 108.800,193.474 109.070,193.200 109.400 M190.600 111.035 L 189.400 112.066 190.800 111.163 C 192.596 110.004,192.601 110.000,192.167 110.002 C 191.965 110.003,191.260 110.468,190.600 111.035 M227.400 110.599 C 227.840 110.915,228.437 111.377,228.726 111.627 C 229.016 111.876,229.341 111.992,229.449 111.884 C 229.677 111.657,227.445 109.994,226.938 110.013 C 226.752 110.020,226.960 110.284,227.400 110.599 M185.020 115.437 C 183.099 117.328,181.285 119.457,180.987 120.169 C 180.690 120.881,180.173 121.690,179.839 121.968 C 179.011 122.655,176.792 127.281,176.834 128.232 C 176.861 128.830,176.941 128.779,177.195 128.000 C 178.503 123.991,182.131 118.754,186.271 114.900 C 187.984 113.305,189.189 112.000,188.949 112.000 C 188.708 112.000,186.940 113.547,185.020 115.437 M232.600 114.548 C 234.140 115.945,236.030 118.012,236.800 119.143 C 237.570 120.273,238.335 121.199,238.500 121.199 C 238.665 121.200,238.800 121.549,238.800 121.976 C 238.800 122.403,238.984 122.866,239.208 123.005 C 239.432 123.144,240.144 124.279,240.789 125.529 C 241.434 126.778,241.970 127.609,241.981 127.375 C 242.012 126.690,240.503 123.784,239.824 123.220 C 239.481 122.935,239.200 122.434,239.200 122.106 C 239.200 121.047,231.143 112.008,230.200 112.009 C 229.980 112.009,231.060 113.152,232.600 114.548 M205.800 119.600 C 205.286 119.821,206.574 119.952,209.400 119.966 C 212.379 119.981,213.606 119.863,213.200 119.600 C 212.465 119.125,206.905 119.125,205.800 119.600 M202.777 120.379 C 201.403 120.796,199.890 121.623,200.106 121.840 C 200.202 121.936,200.803 121.742,201.440 121.410 C 202.078 121.077,202.870 120.801,203.200 120.796 C 203.530 120.792,204.070 120.613,204.400 120.400 C 205.160 119.909,204.361 119.898,202.777 120.379 M214.600 120.267 C 217.258 120.846,221.637 123.349,223.844 125.552 C 225.030 126.736,226.000 127.564,226.000 127.392 C 226.000 126.614,221.567 122.888,219.400 121.845 C 218.080 121.209,216.687 120.534,216.305 120.345 C 215.923 120.155,215.203 120.021,214.705 120.046 C 213.902 120.088,213.890 120.112,214.600 120.267 M197.800 122.746 C 194.899 124.543,189.949 130.793,190.016 132.575 C 190.025 132.809,190.575 131.920,191.239 130.600 C 192.380 128.331,196.900 123.215,197.788 123.187 C 198.313 123.171,199.882 121.999,199.376 122.001 C 199.169 122.002,198.460 122.337,197.800 122.746 M226.000 128.217 C 226.000 128.337,226.475 128.922,227.056 129.517 L 228.112 130.600 227.229 129.300 C 226.394 128.072,226.000 127.725,226.000 128.217 M242.016 128.505 C 242.007 128.893,242.172 129.523,242.382 129.905 C 242.593 130.287,243.022 131.770,243.336 133.200 C 243.879 135.676,243.909 135.720,243.953 134.124 C 243.979 133.202,243.820 132.336,243.600 132.200 C 243.380 132.064,243.200 131.624,243.200 131.222 C 243.200 130.255,242.036 127.585,242.016 128.505 M176.267 129.467 C 175.859 129.874,175.949 132.800,176.369 132.800 C 176.573 132.800,176.708 131.990,176.669 131.000 C 176.631 130.010,176.585 129.200,176.567 129.200 C 176.548 129.200,176.413 129.320,176.267 129.467 M228.000 131.576 C 228.000 131.783,228.170 132.058,228.377 132.186 C 228.584 132.314,228.875 133.227,229.023 134.214 C 229.171 135.202,229.452 136.108,229.646 136.229 C 230.257 136.606,230.032 134.942,229.214 133.033 C 228.472 131.301,228.000 130.735,228.000 131.576 M176.846 133.772 C 176.771 135.024,180.260 138.006,181.756 137.968 C 183.044 137.936,182.925 137.828,181.172 137.445 C 180.000 137.189,177.355 134.777,177.078 133.711 C 176.913 133.078,176.888 133.085,176.846 133.772 M188.702 134.847 C 188.034 135.795,186.971 136.658,185.985 137.052 C 185.095 137.409,184.457 137.791,184.568 137.901 C 185.089 138.422,188.357 136.340,189.163 134.972 C 190.332 132.991,190.061 132.918,188.702 134.847 M244.148 140.000 C 244.148 142.310,244.214 143.255,244.295 142.100 C 244.376 140.945,244.376 139.055,244.295 137.900 C 244.214 136.745,244.148 137.690,244.148 140.000 M230.120 140.000 C 230.120 141.210,230.195 141.705,230.287 141.100 C 230.378 140.495,230.378 139.505,230.287 138.900 C 230.195 138.295,230.120 138.790,230.120 140.000 M229.259 145.000 C 229.009 145.880,228.803 146.904,228.802 147.276 C 228.801 147.648,228.620 148.064,228.400 148.200 C 228.180 148.336,228.000 148.627,228.000 148.847 C 228.000 149.067,228.163 149.146,228.363 149.023 C 228.878 148.704,230.126 144.573,229.901 143.933 C 229.797 143.640,229.508 144.120,229.259 145.000 M243.247 147.000 C 242.943 148.540,242.527 150.125,242.321 150.522 C 242.116 150.919,242.013 151.439,242.092 151.676 C 242.171 151.914,242.474 151.319,242.764 150.354 C 243.054 149.389,243.464 148.226,243.676 147.769 C 243.888 147.312,244.002 146.322,243.931 145.569 C 243.822 144.431,243.707 144.673,243.247 147.000 M224.100 154.300 C 222.945 155.535,222.000 156.608,222.000 156.682 C 222.000 157.117,224.022 155.373,225.320 153.819 C 227.447 151.273,226.628 151.596,224.100 154.300 M240.249 155.601 C 239.395 157.360,238.540 158.800,238.349 158.800 C 238.157 158.800,238.000 159.002,238.000 159.249 C 238.000 159.567,238.168 159.559,238.576 159.220 C 239.280 158.636,242.072 153.216,241.914 152.742 C 241.851 152.555,241.102 153.842,240.249 155.601 M219.000 158.400 C 218.864 158.620,218.358 158.806,217.876 158.813 C 217.394 158.820,216.640 159.114,216.200 159.467 L 215.400 160.108 216.200 159.808 C 216.640 159.644,217.360 159.412,217.800 159.292 C 218.824 159.015,220.326 158.000,219.713 158.000 C 219.457 158.000,219.136 158.180,219.000 158.400 M210.216 160.373 C 210.032 160.671,196.348 160.800,164.800 160.800 C 119.619 160.800,118.279 160.839,119.555 162.115 C 119.882 162.442,120.000 162.379,120.000 161.880 C 120.000 161.244,122.910 161.200,164.900 161.194 C 206.397 161.188,211.608 161.075,210.728 160.195 C 210.592 160.059,210.361 160.139,210.216 160.373 M211.814 160.620 C 211.081 161.174,211.123 161.196,212.414 160.952 C 214.471 160.563,215.276 160.024,213.800 160.025 C 213.140 160.025,212.246 160.293,211.814 160.620 M233.687 164.319 C 231.424 166.592,229.039 168.637,228.387 168.865 C 227.734 169.092,227.200 169.442,227.200 169.643 C 227.200 169.844,226.255 170.450,225.100 170.990 C 223.924 171.540,223.352 171.972,223.800 171.973 C 224.240 171.973,225.320 171.446,226.200 170.802 C 227.080 170.158,228.340 169.373,229.000 169.058 C 230.172 168.497,238.335 160.542,237.980 160.307 C 237.881 160.242,235.949 162.047,233.687 164.319 M119.378 163.235 C 119.231 163.474,119.310 163.870,119.555 164.115 C 119.882 164.442,120.000 164.326,120.000 163.680 C 120.000 162.714,119.792 162.565,119.378 163.235 M119.378 165.235 C 119.231 165.474,119.310 165.870,119.555 166.115 C 119.882 166.442,120.000 166.326,120.000 165.680 C 120.000 164.714,119.792 164.565,119.378 165.235 M119.378 167.235 C 119.231 167.474,119.310 167.870,119.555 168.115 C 119.882 168.442,120.000 168.326,120.000 167.680 C 120.000 166.714,119.792 166.565,119.378 167.235 M119.378 169.235 C 119.231 169.474,119.310 169.870,119.555 170.115 C 119.882 170.442,120.000 170.326,120.000 169.680 C 120.000 168.714,119.792 168.565,119.378 169.235 M119.378 171.235 C 119.231 171.474,119.310 171.870,119.555 172.115 C 119.882 172.442,120.000 172.326,120.000 171.680 C 120.000 170.714,119.792 170.565,119.378 171.235 M221.200 172.385 C 220.870 172.571,219.792 172.963,218.805 173.257 C 217.690 173.588,217.289 173.845,217.747 173.933 C 218.153 174.011,218.682 173.878,218.922 173.638 C 219.163 173.397,219.729 173.194,220.180 173.186 C 220.631 173.178,221.450 172.914,222.000 172.600 C 222.564 172.277,222.739 172.032,222.400 172.038 C 222.070 172.043,221.530 172.199,221.200 172.385 M119.444 173.129 C 119.248 173.446,119.400 173.958,119.833 174.436 C 120.686 175.379,212.708 175.437,215.600 174.496 C 216.841 174.092,216.727 174.073,214.600 174.320 C 213.280 174.474,191.508 174.600,166.218 174.600 L 120.236 174.600 120.001 173.604 C 119.833 172.894,119.673 172.758,119.444 173.129 M119.823 188.775 C 119.422 189.217,119.252 189.761,119.427 190.043 C 119.641 190.390,119.828 190.277,120.054 189.665 L 120.377 188.793 190.528 188.897 C 245.738 188.978,260.543 188.896,260.040 188.513 C 258.776 187.550,120.697 187.808,119.823 188.775 M261.343 188.676 C 261.499 188.833,262.566 189.097,263.714 189.262 C 264.861 189.428,266.411 189.686,267.157 189.836 C 268.074 190.019,268.428 189.970,268.251 189.682 C 268.106 189.448,266.955 189.147,265.694 189.013 C 264.432 188.880,262.873 188.685,262.229 188.581 C 261.585 188.477,261.186 188.520,261.343 188.676 M269.200 190.185 C 269.200 190.286,270.055 190.628,271.100 190.946 C 272.145 191.263,273.360 191.644,273.800 191.794 C 274.589 192.061,274.589 192.056,273.824 191.433 C 273.396 191.085,272.642 190.800,272.147 190.800 C 271.652 190.800,271.136 190.620,271.000 190.400 C 270.758 190.008,269.200 189.821,269.200 190.185 M119.378 191.235 C 119.231 191.474,119.310 191.870,119.555 192.115 C 119.882 192.442,120.000 192.326,120.000 191.680 C 120.000 190.714,119.792 190.565,119.378 191.235 M274.800 192.191 C 274.800 192.477,278.113 194.021,278.308 193.825 C 278.401 193.732,277.706 193.283,276.764 192.828 C 274.924 191.939,274.800 191.899,274.800 192.191 M119.378 193.235 C 119.231 193.474,119.310 193.870,119.555 194.115 C 119.882 194.442,120.000 194.326,120.000 193.680 C 120.000 192.714,119.792 192.565,119.378 193.235 M279.400 194.599 C 279.840 194.915,280.437 195.377,280.726 195.627 C 281.016 195.876,281.341 195.992,281.449 195.884 C 281.677 195.657,279.445 193.994,278.938 194.013 C 278.752 194.020,278.960 194.284,279.400 194.599 M119.378 195.235 C 119.231 195.474,119.310 195.870,119.555 196.115 C 119.882 196.442,120.000 196.326,120.000 195.680 C 120.000 194.714,119.792 194.565,119.378 195.235 M285.507 199.421 C 287.524 201.303,289.810 203.585,290.587 204.493 C 291.364 205.401,292.000 205.955,292.000 205.723 C 292.000 205.186,282.782 196.000,282.244 196.000 C 282.022 196.000,283.491 197.539,285.507 199.421 M119.378 197.235 C 119.231 197.474,119.310 197.870,119.555 198.115 C 119.882 198.442,120.000 198.326,120.000 197.680 C 120.000 196.714,119.792 196.565,119.378 197.235 M119.378 199.235 C 119.231 199.474,119.310 199.870,119.555 200.115 C 119.882 200.442,120.000 200.326,120.000 199.680 C 120.000 198.714,119.792 198.565,119.378 199.235 M119.440 201.135 C 118.395 202.826,116.356 202.777,191.943 202.891 C 248.587 202.977,263.665 203.105,264.060 203.500 C 264.335 203.775,265.109 203.995,265.780 203.988 C 267.746 203.968,266.188 203.343,262.923 202.842 C 260.907 202.532,239.174 202.400,190.210 202.400 L 120.374 202.400 120.053 201.532 C 119.838 200.952,119.635 200.820,119.440 201.135 M270.367 205.716 C 273.990 207.528,279.624 212.539,280.975 215.151 C 281.351 215.879,281.739 216.394,281.837 216.297 C 282.091 216.042,280.991 214.024,280.060 213.038 C 275.833 208.557,274.443 207.412,271.081 205.642 C 269.366 204.739,267.746 204.007,267.481 204.016 C 267.216 204.025,268.515 204.790,270.367 205.716 M292.000 206.751 C 292.000 206.998,292.142 207.200,292.316 207.200 C 292.489 207.200,293.149 208.190,293.782 209.400 C 294.415 210.610,295.011 211.522,295.106 211.427 C 295.201 211.332,294.781 210.339,294.172 209.220 C 293.009 207.083,292.000 205.936,292.000 206.751 M295.200 212.376 C 295.200 212.583,295.353 212.847,295.540 212.963 C 295.727 213.079,296.302 214.484,296.818 216.087 C 297.364 217.786,297.822 218.691,297.915 218.258 C 298.003 217.849,297.878 217.318,297.638 217.078 C 297.397 216.837,297.200 216.309,297.200 215.904 C 297.200 215.499,296.836 214.455,296.392 213.584 C 295.600 212.032,295.200 211.626,295.200 212.376 M119.683 216.816 C 119.402 217.265,119.306 217.848,119.469 218.112 C 119.662 218.423,119.849 218.242,120.001 217.596 L 120.237 216.600 146.418 216.609 C 171.261 216.618,174.923 216.755,177.800 217.780 C 178.589 218.061,178.589 218.056,177.824 217.433 C 177.396 217.085,176.372 216.800,175.547 216.800 C 174.722 216.800,173.936 216.620,173.800 216.400 C 173.235 215.486,120.259 215.894,119.683 216.816 M282.000 216.925 C 282.000 217.324,283.685 220.448,283.825 220.308 C 284.021 220.113,282.477 216.800,282.191 216.800 C 282.086 216.800,282.000 216.856,282.000 216.925 M179.600 218.400 C 180.376 218.901,180.800 218.901,180.800 218.400 C 180.800 218.180,180.395 218.003,179.900 218.006 C 179.172 218.011,179.115 218.086,179.600 218.400 M119.378 219.235 C 119.231 219.474,119.310 219.870,119.555 220.115 C 119.882 220.442,120.000 220.326,120.000 219.680 C 120.000 218.714,119.792 218.565,119.378 219.235 M181.824 219.387 C 182.251 219.710,182.859 219.980,183.176 219.987 C 183.583 219.996,183.524 219.827,182.976 219.413 C 182.549 219.090,181.941 218.820,181.624 218.813 C 181.217 218.804,181.276 218.973,181.824 219.387 M298.237 220.200 C 298.396 220.860,298.661 222.840,298.828 224.600 L 299.130 227.800 299.044 224.200 C 298.995 222.142,298.742 220.257,298.454 219.800 C 298.003 219.084,297.980 219.126,298.237 220.200 M184.204 220.406 C 184.341 220.629,185.117 221.153,185.927 221.571 C 186.737 221.989,187.797 222.706,188.283 223.165 C 188.769 223.624,189.309 223.997,189.483 223.992 C 190.080 223.978,186.601 221.176,185.700 220.944 C 185.205 220.817,184.800 220.553,184.800 220.357 C 184.800 220.160,184.609 220.000,184.376 220.000 C 184.143 220.000,184.066 220.183,184.204 220.406 M119.378 221.235 C 119.231 221.474,119.310 221.870,119.555 222.115 C 119.882 222.442,120.000 222.326,120.000 221.680 C 120.000 220.714,119.792 220.565,119.378 221.235 M284.012 221.867 C 284.005 222.343,284.219 222.806,284.486 222.895 C 285.189 223.130,285.202 236.558,284.500 237.260 C 284.225 237.535,284.005 238.039,284.012 238.380 C 284.033 239.443,284.915 237.589,285.334 235.600 C 286.089 232.024,285.580 223.624,284.499 221.800 C 284.032 221.014,284.024 221.015,284.012 221.867 M119.378 223.235 C 119.231 223.474,119.310 223.870,119.555 224.115 C 119.882 224.442,120.000 224.326,120.000 223.680 C 120.000 222.714,119.792 222.565,119.378 223.235 M192.434 226.741 C 196.112 230.669,200.000 236.691,200.000 238.458 C 200.000 238.866,200.164 239.200,200.365 239.200 C 200.566 239.200,200.856 239.965,201.010 240.900 C 201.378 243.131,201.971 244.220,201.988 242.695 C 201.995 242.087,201.841 241.277,201.647 240.895 C 201.452 240.513,201.117 239.750,200.901 239.200 C 199.910 236.672,197.423 232.032,196.185 230.400 C 194.318 227.939,190.681 224.037,190.234 224.017 C 190.033 224.008,191.023 225.233,192.434 226.741 M119.378 225.235 C 119.231 225.474,119.310 225.870,119.555 226.115 C 119.882 226.442,120.000 226.326,120.000 225.680 C 120.000 224.714,119.792 224.565,119.378 225.235 M119.378 227.235 C 119.231 227.474,119.310 227.870,119.555 228.115 C 119.882 228.442,120.000 228.326,120.000 227.680 C 120.000 226.714,119.792 226.565,119.378 227.235 M123.600 230.282 C 125.470 230.347,136.990 230.469,149.200 230.554 C 170.595 230.704,174.549 230.870,175.026 231.642 C 175.148 231.839,175.462 231.994,175.724 231.987 C 176.843 231.957,174.526 230.800,173.347 230.800 C 172.632 230.800,171.936 230.620,171.800 230.400 C 171.638 230.139,162.652 230.029,145.876 230.082 C 131.754 230.127,121.730 230.217,123.600 230.282 M298.741 235.200 C 298.602 237.290,298.373 239.630,298.232 240.400 C 297.994 241.699,298.021 241.678,298.604 240.098 C 299.042 238.910,299.195 237.341,299.113 234.898 L 298.994 231.400 298.741 235.200 M176.433 232.157 C 176.525 232.243,177.286 232.696,178.124 233.164 C 179.772 234.082,179.742 234.061,182.400 236.226 C 184.180 237.676,184.178 237.671,182.200 235.789 C 180.078 233.770,177.528 232.000,176.741 232.000 C 176.480 232.000,176.342 232.071,176.433 232.157 M225.621 234.821 C 225.939 235.023,226.785 235.191,227.500 235.194 C 228.215 235.197,228.800 235.380,228.800 235.600 C 228.800 235.820,229.019 236.000,229.286 236.000 C 230.525 236.000,228.433 234.876,226.821 234.676 C 225.667 234.533,225.245 234.584,225.621 234.821 M220.781 236.781 L 218.800 238.762 218.813 241.481 C 218.821 243.235,219.034 244.476,219.413 244.976 C 219.905 245.628,220.000 245.648,220.000 245.100 C 220.000 244.741,219.820 244.336,219.600 244.200 C 217.251 242.748,220.517 236.027,224.000 235.147 C 224.995 234.896,224.994 234.894,223.881 234.847 C 223.039 234.812,222.271 235.291,220.781 236.781 M230.502 236.700 C 230.847 237.085,231.768 238.660,232.551 240.200 C 233.333 241.740,233.979 242.681,233.986 242.292 C 233.994 241.903,233.550 240.871,233.000 240.000 C 232.450 239.129,232.000 238.182,232.000 237.897 C 232.000 237.386,230.636 236.000,230.133 236.000 C 229.992 236.000,230.158 236.315,230.502 236.700 M184.000 238.217 C 184.000 238.337,184.475 238.922,185.056 239.517 L 186.112 240.600 185.229 239.300 C 184.394 238.072,184.000 237.725,184.000 238.217 M282.179 242.694 C 281.014 245.040,279.819 246.617,277.293 249.142 C 275.455 250.980,274.030 252.564,274.128 252.661 C 274.406 252.939,280.782 246.485,281.213 245.489 C 281.425 245.000,281.772 244.330,281.985 244.000 C 282.636 242.990,284.003 239.870,283.858 239.725 C 283.783 239.650,283.027 240.986,282.179 242.694 M186.000 241.153 C 186.000 241.373,186.180 241.664,186.400 241.800 C 186.620 241.936,186.806 242.442,186.814 242.924 C 186.827 243.738,187.955 246.193,187.986 245.475 C 188.014 244.822,186.694 241.182,186.352 240.970 C 186.158 240.851,186.000 240.933,186.000 241.153 M234.000 243.346 C 234.000 243.731,235.740 246.594,236.373 247.251 C 236.718 247.609,237.360 248.415,237.800 249.042 C 238.861 250.554,241.226 252.746,242.100 253.028 C 242.485 253.152,242.800 253.422,242.800 253.627 C 242.800 253.832,243.025 254.000,243.300 253.999 C 243.940 253.998,240.368 250.840,239.700 250.817 C 239.425 250.808,239.198 250.575,239.195 250.300 C 239.192 250.025,238.472 249.027,237.595 248.083 C 236.718 247.138,236.000 246.174,236.000 245.940 C 236.000 245.707,235.550 244.981,235.000 244.327 C 234.450 243.673,234.000 243.232,234.000 243.346 M296.846 243.919 C 296.821 244.205,296.441 245.181,296.003 246.089 C 295.564 246.996,295.282 247.815,295.375 247.908 C 295.700 248.233,297.246 244.734,297.070 244.070 C 296.973 243.701,296.872 243.634,296.846 243.919 M202.200 251.029 C 202.200 255.119,202.314 257.341,202.465 256.200 C 202.797 253.693,202.789 246.589,202.453 245.029 C 202.314 244.384,202.200 247.084,202.200 251.029 M188.038 247.600 C 188.031 248.590,188.274 249.728,188.579 250.130 C 189.069 250.777,189.106 250.664,188.908 249.130 C 188.548 246.356,188.053 245.485,188.038 247.600 M220.000 246.492 C 220.000 247.405,222.554 252.202,223.888 253.795 C 224.499 254.525,225.530 255.860,226.177 256.762 C 226.824 257.663,227.544 258.397,227.777 258.394 C 228.070 258.390,228.069 258.298,227.772 258.094 C 227.537 257.932,226.559 256.720,225.600 255.400 C 224.641 254.080,223.723 252.908,223.560 252.796 C 223.397 252.684,222.530 251.074,221.632 249.217 C 220.734 247.361,220.000 246.135,220.000 246.492 M293.841 250.475 C 293.212 251.644,292.501 252.725,292.261 252.878 C 292.020 253.031,291.943 253.276,292.089 253.422 C 292.419 253.752,295.303 249.308,295.118 248.754 C 295.044 248.532,294.469 249.307,293.841 250.475 M188.267 253.467 C 188.120 253.613,188.018 254.288,188.041 254.967 L 188.082 256.200 188.410 254.803 C 188.753 253.347,188.717 253.016,188.267 253.467 M244.202 254.403 C 244.582 255.018,246.793 256.069,247.327 255.889 C 247.587 255.801,247.125 255.484,246.300 255.184 C 245.475 254.884,244.800 254.495,244.800 254.320 C 244.800 254.144,244.609 254.000,244.376 254.000 C 244.143 254.000,244.065 254.181,244.202 254.403 M269.102 254.904 C 268.279 255.363,267.663 255.796,267.733 255.866 C 267.901 256.034,271.200 254.439,271.200 254.191 C 271.200 253.858,270.642 254.048,269.102 254.904 M286.919 259.077 C 284.234 261.785,282.167 264.000,282.325 264.000 C 282.847 264.000,292.273 254.508,291.974 254.285 C 291.878 254.213,289.603 256.370,286.919 259.077 M142.200 256.400 C 142.064 256.620,141.625 256.800,141.225 256.800 C 140.825 256.800,140.251 257.115,139.949 257.500 C 139.472 258.108,139.479 258.142,140.000 257.755 C 140.330 257.510,141.095 257.192,141.700 257.048 C 142.305 256.903,142.800 256.608,142.800 256.392 C 142.800 255.887,142.515 255.890,142.200 256.400 M248.220 256.345 C 249.235 257.266,256.779 258.536,256.261 257.699 C 256.132 257.490,254.732 257.210,253.151 257.077 C 251.570 256.945,250.088 256.648,249.858 256.418 C 249.628 256.188,249.080 256.000,248.640 256.000 C 248.165 256.000,247.994 256.140,248.220 256.345 M144.353 257.093 C 145.703 257.258,148.800 259.021,148.800 259.625 C 148.800 259.800,149.025 260.181,149.300 260.471 C 149.575 260.762,150.572 262.036,151.515 263.302 C 153.259 265.644,156.559 268.543,158.003 269.001 C 158.441 269.140,158.800 269.422,158.800 269.627 C 158.800 269.832,159.025 269.994,159.300 269.986 C 159.908 269.968,157.585 268.005,156.952 268.002 C 156.301 267.999,152.078 263.707,150.918 261.870 C 148.927 258.716,146.523 256.792,144.663 256.864 C 143.108 256.924,143.088 256.939,144.353 257.093 M187.232 257.539 C 186.995 257.984,186.807 258.674,186.816 259.074 C 186.825 259.508,187.068 259.254,187.422 258.439 C 188.070 256.945,187.923 256.248,187.232 257.539 M260.800 257.093 C 260.030 257.183,259.220 257.443,259.000 257.669 C 258.561 258.123,260.602 257.939,263.400 257.273 L 265.000 256.892 263.600 256.910 C 262.830 256.920,261.570 257.002,260.800 257.093 M257.000 257.600 C 256.864 257.820,257.134 258.000,257.600 258.000 C 258.066 258.000,258.336 257.820,258.200 257.600 C 258.064 257.380,257.794 257.200,257.600 257.200 C 257.406 257.200,257.136 257.380,257.000 257.600 M201.333 259.431 C 199.965 263.228,199.620 264.939,200.602 263.054 C 200.931 262.424,201.200 261.515,201.200 261.034 C 201.200 260.553,201.400 259.960,201.645 259.715 C 201.890 259.470,202.014 259.043,201.922 258.766 C 201.830 258.489,201.565 258.788,201.333 259.431 M228.229 259.106 C 228.465 259.268,228.776 259.719,228.920 260.109 C 229.064 260.499,229.475 260.931,229.833 261.068 C 230.191 261.205,231.140 261.933,231.942 262.686 C 234.039 264.654,239.506 268.227,239.867 267.866 C 239.949 267.784,238.527 266.803,236.708 265.685 C 234.889 264.568,232.269 262.561,230.887 261.226 C 229.505 259.892,228.245 258.803,228.087 258.806 C 227.929 258.809,227.993 258.944,228.229 259.106 M137.280 260.080 C 137.016 260.344,136.800 260.873,136.800 261.256 C 136.800 261.639,136.620 262.064,136.400 262.200 C 135.342 262.854,136.585 267.460,138.176 268.780 C 138.519 269.065,138.806 269.591,138.813 269.949 C 138.820 270.307,139.567 271.320,140.471 272.200 L 142.116 273.800 141.011 272.300 C 140.403 271.475,139.746 270.800,139.553 270.800 C 139.359 270.800,139.200 270.518,139.200 270.173 C 139.200 269.829,138.705 268.897,138.100 268.103 C 136.826 266.431,136.482 261.546,137.549 260.261 C 138.183 259.498,137.991 259.369,137.280 260.080 M183.243 264.441 C 181.780 266.048,179.950 267.596,178.964 268.059 C 178.016 268.505,177.030 269.123,176.771 269.434 C 176.088 270.257,176.713 270.127,177.891 269.200 C 178.450 268.760,179.113 268.400,179.365 268.400 C 179.789 268.400,184.387 263.882,185.573 262.300 C 186.647 260.868,185.725 261.715,183.243 264.441 M280.980 264.361 C 280.771 264.560,280.240 264.809,279.800 264.915 C 279.041 265.097,279.044 265.110,279.851 265.154 C 280.319 265.179,280.926 264.930,281.200 264.600 C 281.743 263.946,281.591 263.781,280.980 264.361 M198.660 266.511 C 196.475 270.678,195.589 271.859,192.125 275.223 C 188.591 278.655,183.481 282.255,181.603 282.637 C 181.051 282.750,180.060 283.076,179.400 283.363 C 176.268 284.724,174.960 284.893,167.692 284.876 C 162.984 284.865,160.142 284.702,159.869 284.429 C 159.633 284.193,159.071 284.007,158.620 284.016 C 156.087 284.064,160.885 285.200,163.622 285.200 C 165.374 285.200,166.867 285.385,167.012 285.619 C 167.189 285.906,167.450 285.891,167.836 285.570 C 168.267 285.213,168.533 285.213,168.964 285.570 C 169.350 285.891,169.611 285.906,169.788 285.619 C 169.931 285.389,171.239 285.200,172.695 285.200 C 175.363 285.200,177.247 284.791,179.332 283.760 C 179.955 283.452,180.765 283.189,181.132 283.176 C 183.991 283.075,197.200 272.137,197.200 269.871 C 197.200 269.556,197.485 269.061,197.834 268.771 C 198.538 268.188,200.203 264.869,199.929 264.596 C 199.834 264.500,199.263 265.362,198.660 266.511 M276.600 266.805 C 269.174 270.524,261.643 271.916,252.994 271.168 C 250.357 270.940,248.029 270.584,247.820 270.377 C 247.611 270.169,246.891 270.018,246.220 270.041 L 245.000 270.082 246.400 270.476 C 247.170 270.693,248.476 270.964,249.303 271.078 C 250.129 271.191,250.905 271.445,251.026 271.642 C 251.335 272.142,262.690 272.102,263.000 271.600 C 263.136 271.380,263.720 271.200,264.298 271.200 C 265.667 271.200,270.490 270.013,270.980 269.555 C 271.189 269.360,271.679 269.200,272.070 269.200 C 272.781 269.200,279.200 266.122,279.200 265.781 C 279.200 265.506,279.170 265.518,276.600 266.805 M241.024 268.587 C 241.451 268.910,242.169 269.180,242.620 269.187 C 243.071 269.194,243.653 269.413,243.913 269.673 C 244.174 269.934,244.503 270.030,244.645 269.888 C 244.787 269.746,244.385 269.424,243.752 269.172 C 243.118 268.920,242.287 268.553,241.905 268.357 C 240.792 267.785,240.175 267.946,241.024 268.587 M160.800 270.478 C 162.572 271.235,165.335 271.707,168.000 271.707 C 171.353 271.707,178.332 270.117,175.380 270.025 C 174.929 270.011,174.336 270.224,174.063 270.497 C 173.715 270.845,171.901 270.994,168.000 270.994 C 164.099 270.994,162.285 270.845,161.937 270.497 C 161.664 270.224,161.071 270.011,160.620 270.025 C 159.895 270.048,159.916 270.100,160.800 270.478 M142.000 274.147 C 142.000 274.598,143.569 276.165,143.794 275.939 C 143.906 275.828,143.548 275.314,142.998 274.799 C 142.449 274.283,142.000 273.989,142.000 274.147 M145.400 277.152 C 146.398 278.276,149.578 280.675,151.354 281.643 C 153.502 282.814,154.440 283.200,155.138 283.200 C 155.586 283.200,156.064 283.380,156.200 283.600 C 156.336 283.820,156.752 283.994,157.124 283.986 C 158.008 283.967,156.089 282.835,155.138 282.814 C 154.359 282.797,148.098 279.326,147.194 278.409 C 147.080 278.294,146.360 277.660,145.594 277.000 L 144.200 275.800 145.400 277.152 " class="color6ccccc svgShape"></path><path fill="#ffffff" fill-rule="evenodd" d="M351.699 195.299 L 351.600 337.599 209.300 337.700 L 67.000 337.801 209.313 337.901 C 322.868 337.980,351.663 337.899,351.815 337.500 C 351.919 337.225,351.958 273.100,351.902 195.000 L 351.799 53.000 351.699 195.299 M82.267 68.267 C 81.607 68.926,81.972 322.704,82.633 322.957 C 83.955 323.465,336.211 323.229,336.720 322.720 C 337.229 322.211,337.465 69.955,336.957 68.633 C 336.704 67.972,82.926 67.607,82.267 68.267 M336.320 68.880 C 337.019 69.579,337.019 321.621,336.320 322.320 C 335.621 323.019,83.579 323.019,82.880 322.320 C 82.356 321.796,82.143 69.190,82.667 68.667 C 83.190 68.143,335.796 68.356,336.320 68.880 M202.687 106.246 C 202.551 106.382,201.846 106.633,201.120 106.805 L 199.800 107.118 201.020 107.159 C 201.691 107.182,202.429 107.011,202.659 106.781 C 203.096 106.344,214.723 106.477,217.800 106.954 C 219.216 107.174,219.170 107.135,217.400 106.619 C 215.380 106.029,203.212 105.721,202.687 106.246 M196.600 108.191 C 195.500 108.709,194.904 109.148,195.276 109.167 C 195.648 109.185,196.064 109.020,196.200 108.800 C 196.336 108.580,196.762 108.400,197.147 108.400 C 197.532 108.400,198.196 108.136,198.624 107.813 C 199.762 106.952,198.882 107.116,196.600 108.191 M220.800 107.874 C 221.570 108.216,222.533 108.667,222.939 108.876 C 223.345 109.085,223.757 109.176,223.854 109.079 C 224.086 108.848,220.558 107.192,219.904 107.226 C 219.627 107.240,220.030 107.531,220.800 107.874 M192.293 110.327 C 188.490 112.468,184.319 116.253,181.563 120.064 C 179.748 122.574,177.120 127.560,177.310 128.131 C 177.383 128.350,178.060 127.288,178.815 125.771 C 181.395 120.581,188.048 112.400,189.688 112.400 C 189.889 112.400,190.643 111.950,191.364 111.400 C 192.086 110.850,192.861 110.400,193.089 110.400 C 193.316 110.400,193.726 110.130,194.000 109.800 C 194.644 109.025,194.560 109.050,192.293 110.327 M224.800 109.800 C 225.074 110.130,225.574 110.400,225.911 110.400 C 226.249 110.400,227.114 110.850,227.836 111.400 C 228.557 111.950,229.258 112.400,229.394 112.400 C 229.531 112.400,231.196 113.926,233.096 115.792 C 234.995 117.658,236.638 119.096,236.746 118.988 C 237.042 118.692,229.999 112.000,229.392 112.000 C 229.103 112.000,228.807 111.847,228.733 111.661 C 228.600 111.322,224.981 109.200,224.537 109.200 C 224.408 109.200,224.526 109.470,224.800 109.800 M205.422 119.165 C 205.297 119.366,204.478 119.652,203.600 119.800 C 202.722 119.948,201.909 120.224,201.793 120.412 C 201.676 120.600,202.889 120.392,204.487 119.949 C 208.022 118.969,215.511 119.285,216.227 120.444 C 216.348 120.640,216.662 120.794,216.924 120.787 C 217.798 120.764,215.861 119.600,214.947 119.600 C 214.452 119.600,213.936 119.420,213.800 119.200 C 213.490 118.698,205.730 118.666,205.422 119.165 M236.800 119.722 C 236.800 119.894,237.250 120.520,237.800 121.113 C 238.350 121.707,238.800 122.051,238.800 121.878 C 238.800 121.706,238.350 121.080,237.800 120.487 C 237.250 119.893,236.800 119.549,236.800 119.722 M200.000 121.200 C 200.000 121.420,199.764 121.600,199.476 121.600 C 199.189 121.600,198.604 121.873,198.176 122.207 C 197.463 122.764,197.497 122.773,198.600 122.325 C 200.523 121.542,201.540 120.800,200.689 120.800 C 200.310 120.800,200.000 120.980,200.000 121.200 M218.000 120.902 C 218.534 121.467,221.200 122.742,221.200 122.432 C 221.200 122.238,220.615 121.847,219.900 121.565 C 219.185 121.283,218.420 120.971,218.200 120.871 C 217.980 120.772,217.890 120.786,218.000 120.902 M194.357 125.100 C 191.975 127.570,190.594 129.527,190.968 129.901 C 191.096 130.029,191.200 129.921,191.200 129.662 C 191.200 129.403,192.574 127.753,194.253 125.996 C 195.932 124.238,197.142 122.800,196.941 122.800 C 196.739 122.800,195.577 123.835,194.357 125.100 M223.826 124.939 C 225.022 126.116,226.000 127.264,226.000 127.490 C 226.000 127.717,226.240 128.102,226.534 128.345 C 226.828 128.589,227.487 129.602,227.998 130.597 C 228.510 131.591,228.994 132.339,229.074 132.259 C 229.315 132.019,227.115 128.000,226.743 128.000 C 226.554 128.000,226.400 127.769,226.400 127.486 C 226.400 126.972,222.406 122.800,221.914 122.800 C 221.770 122.800,222.630 123.763,223.826 124.939 M238.800 123.153 C 238.800 123.373,238.975 123.661,239.189 123.793 C 239.403 123.926,239.869 124.701,240.223 125.517 C 240.577 126.333,241.009 127.276,241.183 127.613 C 241.356 127.950,241.625 128.803,241.780 129.509 C 242.077 130.861,242.800 131.668,242.800 130.647 C 242.800 130.317,242.620 129.936,242.400 129.800 C 242.180 129.664,242.000 129.198,242.000 128.765 C 242.000 127.868,239.829 123.389,239.209 123.006 C 238.984 122.867,238.800 122.933,238.800 123.153 M176.667 129.700 C 176.546 130.195,176.595 131.230,176.776 132.000 C 177.072 133.263,177.105 133.175,177.111 131.100 C 177.118 128.621,177.012 128.287,176.667 129.700 M189.752 131.900 C 189.608 132.505,189.309 133.229,189.088 133.510 C 188.867 133.790,188.795 134.128,188.928 134.261 C 189.061 134.394,189.376 133.985,189.628 133.352 C 189.880 132.718,190.248 131.885,190.446 131.500 C 190.672 131.062,190.659 130.800,190.411 130.800 C 190.193 130.800,189.897 131.295,189.752 131.900 M243.088 133.800 C 243.453 136.335,243.461 143.579,243.101 146.200 L 242.827 148.200 243.375 146.200 C 244.110 143.520,244.114 136.758,243.383 134.000 L 242.800 131.800 243.088 133.800 M229.399 133.400 C 230.440 136.026,230.455 143.767,229.425 146.600 C 229.154 147.348,229.172 147.355,229.712 146.699 C 230.979 145.161,230.867 134.243,229.572 133.051 C 229.193 132.702,229.154 132.780,229.399 133.400 M177.200 133.968 C 177.200 134.420,179.419 136.678,180.336 137.159 C 181.703 137.876,184.179 138.004,185.200 137.410 C 186.318 136.760,185.577 136.570,184.393 137.204 C 183.094 137.899,180.119 136.829,178.563 135.106 C 177.813 134.276,177.200 133.764,177.200 133.968 M187.467 135.667 C 187.063 136.107,186.808 136.541,186.898 136.632 C 186.989 136.723,187.486 136.348,188.001 135.798 C 188.517 135.249,188.773 134.815,188.570 134.833 C 188.366 134.852,187.870 135.227,187.467 135.667 M227.834 150.080 C 226.179 153.145,224.101 155.440,221.306 157.292 C 219.934 158.201,218.881 159.015,218.967 159.100 C 219.151 159.285,220.811 158.379,221.392 157.777 C 221.616 157.545,222.467 156.867,223.281 156.271 C 224.940 155.058,228.400 150.759,228.400 149.910 C 228.400 149.608,228.613 149.147,228.873 148.887 C 229.134 148.626,229.257 148.324,229.148 148.214 C 229.038 148.105,228.447 148.945,227.834 150.080 M242.254 149.243 C 242.163 149.549,241.798 150.616,241.444 151.613 C 240.737 153.603,240.615 154.558,241.194 153.569 C 241.832 152.477,242.867 149.134,242.638 148.905 C 242.518 148.784,242.344 148.936,242.254 149.243 M239.781 155.700 C 239.630 156.195,239.078 157.173,238.554 157.873 C 238.029 158.574,237.600 159.294,237.600 159.473 C 237.599 159.653,235.615 161.761,233.190 164.157 C 230.764 166.553,228.858 168.592,228.954 168.687 C 229.270 169.003,238.000 160.130,238.000 159.492 C 238.000 159.148,238.153 158.807,238.339 158.733 C 238.862 158.528,240.833 154.800,240.419 154.800 C 240.218 154.800,239.931 155.205,239.781 155.700 M215.800 159.894 C 214.920 160.225,213.660 160.635,213.000 160.806 L 211.800 161.118 213.076 161.159 C 213.778 161.182,214.449 161.044,214.568 160.853 C 214.686 160.661,215.496 160.391,216.368 160.251 C 217.240 160.112,218.065 159.818,218.201 159.599 C 218.529 159.068,217.744 159.164,215.800 159.894 M120.184 167.800 L 120.200 174.600 164.800 174.727 C 209.956 174.855,215.207 174.724,218.200 173.397 C 219.164 172.970,219.239 172.859,218.580 172.832 C 218.129 172.815,217.535 173.025,217.260 173.300 C 216.867 173.693,206.475 173.823,168.590 173.909 L 120.420 174.019 120.294 167.509 L 120.169 161.000 120.184 167.800 M227.016 169.174 C 226.759 169.590,223.108 171.390,221.700 171.795 C 221.205 171.937,220.800 172.258,220.800 172.507 C 220.800 172.829,220.938 172.822,221.280 172.480 C 221.544 172.216,222.004 172.000,222.302 172.000 C 223.192 172.000,226.546 170.363,227.316 169.553 C 227.709 169.139,227.855 168.800,227.639 168.800 C 227.424 168.800,227.143 168.968,227.016 169.174 M120.267 189.067 C 119.742 189.592,119.962 202.011,120.500 202.211 C 121.355 202.529,263.135 202.618,262.938 202.300 C 262.836 202.135,230.723 202.000,191.576 202.000 L 120.400 202.000 120.400 195.601 L 120.400 189.202 190.300 189.100 L 260.200 188.998 190.367 188.899 C 151.958 188.844,120.413 188.920,120.267 189.067 M265.065 189.586 C 265.321 189.864,266.360 190.184,267.374 190.298 C 268.389 190.413,269.315 190.662,269.433 190.853 C 269.551 191.044,270.042 191.189,270.524 191.175 C 271.744 191.139,270.067 190.417,267.800 190.001 C 266.920 189.840,265.840 189.567,265.400 189.395 C 264.769 189.148,264.698 189.189,265.065 189.586 M272.800 191.874 C 273.570 192.216,274.533 192.667,274.939 192.876 C 275.345 193.085,275.757 193.176,275.854 193.079 C 276.086 192.848,272.558 191.192,271.904 191.226 C 271.627 191.240,272.030 191.531,272.800 191.874 M276.800 193.800 C 277.074 194.130,277.574 194.400,277.911 194.400 C 278.249 194.400,279.114 194.850,279.836 195.400 C 280.557 195.950,281.252 196.400,281.381 196.400 C 282.676 196.400,293.068 208.058,293.771 210.300 C 293.927 210.795,294.218 211.200,294.419 211.200 C 294.751 211.200,293.004 207.671,292.439 207.200 C 292.307 207.090,291.931 206.481,291.604 205.847 C 290.882 204.449,282.114 196.000,281.385 196.000 C 281.100 196.000,280.807 195.847,280.733 195.661 C 280.600 195.322,276.981 193.200,276.537 193.200 C 276.408 193.200,276.526 193.470,276.800 193.800 M264.200 202.983 C 264.420 203.049,265.410 203.337,266.400 203.623 C 267.390 203.910,268.425 204.314,268.700 204.521 C 269.028 204.769,269.200 204.741,269.200 204.439 C 269.200 204.187,268.656 203.871,267.992 203.738 C 267.327 203.605,266.686 203.340,266.568 203.148 C 266.450 202.957,265.778 202.814,265.076 202.832 C 264.374 202.849,263.980 202.917,264.200 202.983 M270.033 204.957 C 270.673 205.560,273.200 206.712,273.200 206.401 C 273.200 206.189,272.750 205.902,272.200 205.764 C 271.650 205.626,271.200 205.353,271.200 205.157 C 271.200 204.960,270.900 204.800,270.533 204.800 C 270.167 204.800,269.942 204.871,270.033 204.957 M274.544 207.708 C 275.043 208.207,276.195 209.204,277.104 209.924 C 278.013 210.644,278.861 211.540,278.988 211.916 C 279.116 212.292,279.711 212.944,280.310 213.365 L 281.400 214.130 280.300 212.943 C 279.695 212.290,279.200 211.541,279.200 211.278 C 279.200 211.015,279.056 210.800,278.880 210.800 C 278.704 210.800,277.550 209.900,276.316 208.800 C 274.026 206.759,272.904 206.067,274.544 207.708 M294.814 211.905 C 294.806 212.183,294.980 212.723,295.200 213.105 C 295.420 213.487,295.785 214.320,296.011 214.955 C 296.237 215.591,296.516 216.018,296.629 215.904 C 296.743 215.790,296.385 214.730,295.832 213.548 C 295.280 212.367,294.822 211.627,294.814 211.905 M281.200 214.513 C 281.200 215.161,283.008 217.976,283.150 217.550 C 283.244 217.269,283.113 216.971,282.860 216.887 C 282.607 216.802,282.400 216.410,282.400 216.016 C 282.400 215.621,282.130 215.074,281.800 214.800 C 281.470 214.526,281.200 214.397,281.200 214.513 M120.267 216.667 C 120.120 216.813,120.000 219.873,120.000 223.467 L 120.000 230.000 145.720 230.000 C 164.067 230.000,171.568 230.128,171.885 230.445 C 172.130 230.690,172.571 230.801,172.865 230.693 C 175.207 229.829,169.533 229.600,145.774 229.600 L 120.400 229.600 120.400 223.170 L 120.400 216.740 147.300 216.870 C 162.095 216.942,173.120 216.885,171.800 216.743 C 168.581 216.399,120.606 216.328,120.267 216.667 M296.825 217.476 C 296.811 217.958,296.975 218.461,297.188 218.593 C 297.402 218.725,297.696 219.730,297.841 220.825 C 298.056 222.448,298.813 224.111,298.795 222.924 C 298.773 221.431,296.864 216.150,296.825 217.476 M174.971 217.554 C 175.092 217.748,176.047 218.035,177.095 218.191 C 178.143 218.347,179.216 218.653,179.481 218.870 C 179.745 219.088,180.272 219.206,180.651 219.133 C 181.030 219.060,180.160 218.595,178.718 218.100 C 175.969 217.157,174.603 216.958,174.971 217.554 M283.200 218.556 C 283.200 218.696,283.358 219.123,283.552 219.505 C 283.746 219.887,284.184 220.830,284.526 221.600 C 284.869 222.370,285.160 222.696,285.174 222.324 C 285.188 221.952,285.020 221.536,284.800 221.400 C 284.580 221.264,284.400 220.735,284.400 220.225 C 284.400 219.715,284.130 219.074,283.800 218.800 C 283.470 218.526,283.200 218.417,283.200 218.556 M181.949 219.736 C 182.251 220.101,182.836 220.400,183.249 220.400 C 183.662 220.400,184.000 220.560,184.000 220.756 C 184.000 220.952,184.765 221.472,185.700 221.912 C 186.635 222.352,187.743 223.092,188.162 223.556 C 188.581 224.020,189.081 224.400,189.272 224.400 C 189.463 224.400,190.677 225.480,191.968 226.800 C 193.260 228.120,194.465 229.200,194.647 229.200 C 194.828 229.200,193.817 228.030,192.400 226.600 C 190.983 225.170,189.675 224.000,189.495 224.000 C 189.314 224.000,188.769 223.624,188.283 223.165 C 187.797 222.706,186.770 221.984,186.000 221.561 C 185.230 221.138,184.330 220.641,184.000 220.458 C 181.599 219.123,181.378 219.045,181.949 219.736 M285.407 226.000 C 285.826 227.950,285.864 233.634,285.465 234.600 L 285.135 235.400 285.803 234.600 C 286.633 233.608,286.483 225.905,285.618 225.085 C 285.206 224.694,285.165 224.870,285.407 226.000 M298.920 229.600 C 298.920 230.810,298.995 231.305,299.087 230.700 C 299.178 230.095,299.178 229.105,299.087 228.500 C 298.995 227.895,298.920 228.390,298.920 229.600 M194.800 229.832 C 194.800 229.993,195.250 230.714,195.800 231.436 C 196.350 232.157,196.806 232.894,196.813 233.073 C 196.830 233.488,198.247 235.200,198.573 235.200 C 198.708 235.200,198.501 234.705,198.113 234.100 C 196.954 232.292,194.800 229.517,194.800 229.832 M175.424 231.387 C 175.851 231.710,176.479 231.980,176.820 231.987 C 177.161 231.994,177.682 232.225,177.979 232.500 C 178.348 232.843,178.433 232.851,178.251 232.525 C 177.960 232.007,175.729 230.800,175.062 230.800 C 174.834 230.800,174.996 231.064,175.424 231.387 M179.878 233.766 C 180.495 234.297,181.058 234.674,181.129 234.604 C 181.386 234.348,179.807 232.800,179.289 232.800 C 178.995 232.800,179.260 233.235,179.878 233.766 M182.681 236.100 C 183.362 236.815,184.657 238.465,185.559 239.766 C 186.462 241.068,187.200 242.009,187.200 241.858 C 187.200 241.425,185.117 238.215,184.740 238.067 C 184.553 237.993,184.400 237.782,184.400 237.597 C 184.400 237.212,182.064 234.800,181.691 234.800 C 181.555 234.800,182.000 235.385,182.681 236.100 M221.287 236.762 C 219.735 238.268,218.884 239.818,219.352 240.286 C 219.476 240.410,219.766 239.991,219.995 239.355 C 220.225 238.720,221.175 237.525,222.106 236.701 C 223.038 235.877,223.597 235.202,223.348 235.201 C 223.100 235.200,222.172 235.903,221.287 236.762 M228.224 235.787 C 228.651 236.110,229.148 236.380,229.329 236.387 C 229.995 236.413,230.692 237.504,232.917 242.000 C 234.307 244.810,235.913 247.378,237.043 248.600 C 238.060 249.700,238.647 250.242,238.346 249.805 C 237.509 248.587,237.060 248.023,236.336 247.281 C 235.972 246.906,235.015 245.250,234.211 243.600 C 231.080 237.176,230.326 236.000,229.338 236.000 C 229.042 236.000,228.800 235.820,228.800 235.600 C 228.800 235.380,228.496 235.200,228.124 235.200 C 227.534 235.200,227.546 235.275,228.224 235.787 M198.800 236.300 C 198.800 236.549,198.980 236.864,199.200 237.000 C 199.420 237.136,199.600 237.665,199.600 238.175 C 199.600 238.685,199.870 239.326,200.200 239.600 C 200.615 239.944,200.800 239.959,200.800 239.649 C 200.800 239.402,200.620 239.200,200.400 239.200 C 200.180 239.200,199.994 238.795,199.987 238.300 C 199.980 237.805,199.710 237.051,199.387 236.624 C 199.064 236.196,198.800 236.051,198.800 236.300 M298.339 237.000 C 298.197 237.220,297.951 238.435,297.794 239.700 C 297.637 240.965,297.349 242.000,297.154 242.000 C 296.959 242.000,296.801 242.405,296.802 242.900 C 296.805 243.725,296.855 243.704,297.402 242.654 C 297.731 242.024,298.000 241.157,298.000 240.728 C 298.000 240.299,298.191 239.590,298.425 239.153 C 298.870 238.321,298.790 236.305,298.339 237.000 M284.444 238.431 C 284.163 239.184,283.768 240.113,283.567 240.495 C 283.032 241.508,283.117 241.767,283.800 241.200 C 284.130 240.926,284.400 240.310,284.400 239.831 C 284.400 239.352,284.600 238.760,284.845 238.515 C 285.090 238.270,285.214 237.843,285.122 237.566 C 285.030 237.289,284.724 237.678,284.444 238.431 M200.841 242.020 C 200.818 242.801,201.001 243.641,201.247 243.887 C 202.259 244.899,202.105 254.991,201.013 259.200 C 200.762 260.170,200.773 260.167,201.390 259.099 C 202.706 256.822,202.634 247.013,201.264 242.000 L 200.882 240.600 200.841 242.020 M282.630 242.800 C 282.451 243.350,282.028 244.116,281.688 244.502 C 281.349 244.889,281.171 245.304,281.292 245.425 C 281.672 245.805,283.266 243.232,283.106 242.498 C 282.987 241.951,282.884 242.016,282.630 242.800 M187.380 243.400 C 187.982 245.016,188.753 247.833,188.914 249.000 L 189.080 250.200 189.140 248.875 C 189.205 247.443,188.135 243.650,187.483 243.000 C 187.215 242.733,187.181 242.866,187.380 243.400 M219.500 243.999 C 219.775 244.308,220.000 244.849,220.000 245.201 C 220.000 246.036,223.019 252.276,223.800 253.057 C 224.132 253.389,224.951 254.456,225.621 255.430 C 226.290 256.403,226.920 257.200,227.019 257.200 C 227.504 257.200,227.045 256.405,225.406 254.407 C 223.665 252.284,220.400 246.187,220.400 245.057 C 220.400 244.750,220.085 244.260,219.700 243.968 C 219.104 243.518,219.075 243.522,219.500 243.999 M296.011 245.045 C 295.785 245.680,295.420 246.513,295.200 246.895 C 294.980 247.277,294.806 247.817,294.814 248.095 C 294.822 248.373,295.280 247.633,295.832 246.452 C 296.385 245.270,296.743 244.210,296.629 244.096 C 296.516 243.982,296.237 244.409,296.011 245.045 M277.768 249.327 C 275.779 251.340,273.647 253.057,272.228 253.787 C 270.960 254.440,270.155 255.052,270.441 255.147 C 270.726 255.242,271.029 255.113,271.113 254.860 C 271.198 254.607,271.529 254.400,271.850 254.400 C 272.484 254.400,276.306 251.632,277.969 249.969 C 278.967 248.971,281.364 245.972,281.120 246.027 C 281.054 246.042,279.545 247.527,277.768 249.327 M293.781 249.700 C 293.630 250.195,293.078 251.173,292.554 251.873 C 292.029 252.574,291.600 253.257,291.600 253.391 C 291.600 253.661,291.069 254.243,287.143 258.273 C 284.592 260.892,282.300 262.967,280.600 264.196 C 280.160 264.514,279.998 264.780,280.239 264.787 C 281.436 264.822,291.984 254.545,291.996 253.333 C 291.998 253.077,292.153 252.807,292.339 252.733 C 292.862 252.528,294.833 248.800,294.419 248.800 C 294.218 248.800,293.931 249.205,293.781 249.700 M241.200 252.762 C 242.190 253.662,243.143 254.398,243.317 254.399 C 243.491 254.400,244.017 254.758,244.487 255.195 C 244.956 255.632,245.939 256.102,246.670 256.240 C 247.402 256.377,248.000 256.649,248.000 256.845 C 248.000 257.040,248.495 257.186,249.100 257.168 C 249.705 257.151,249.930 257.048,249.600 256.939 C 246.380 255.879,244.170 254.680,240.800 252.169 C 239.831 251.447,239.955 251.630,241.200 252.762 M188.320 255.200 C 187.984 256.630,187.568 258.160,187.396 258.600 C 187.156 259.211,187.196 259.296,187.563 258.958 C 188.094 258.470,189.307 253.720,189.077 253.033 C 188.997 252.795,188.656 253.770,188.320 255.200 M268.400 255.594 C 268.070 255.785,267.080 256.215,266.200 256.550 C 265.086 256.974,264.866 257.165,265.476 257.179 C 265.958 257.191,266.464 257.020,266.600 256.800 C 266.736 256.580,267.265 256.400,267.775 256.400 C 268.285 256.400,268.926 256.130,269.200 255.800 C 269.743 255.146,269.350 255.045,268.400 255.594 M138.800 258.800 C 137.920 259.680,137.200 260.591,137.200 260.824 C 137.200 261.518,138.021 260.797,138.418 259.754 C 138.620 259.221,139.221 258.620,139.754 258.418 C 140.797 258.021,141.518 257.200,140.824 257.200 C 140.591 257.200,139.680 257.920,138.800 258.800 M145.869 257.632 C 146.366 258.233,148.800 259.764,148.800 259.476 C 148.800 259.383,148.035 258.802,147.100 258.185 C 146.165 257.568,145.611 257.320,145.869 257.632 M251.119 257.641 C 251.953 258.539,261.537 258.666,262.600 257.792 L 263.400 257.135 262.600 257.467 C 261.525 257.914,252.408 257.893,251.400 257.441 C 250.727 257.139,250.682 257.171,251.119 257.641 M186.190 261.086 C 185.405 262.751,180.149 268.400,179.386 268.400 C 179.123 268.400,178.479 268.734,177.954 269.142 C 177.429 269.550,176.280 270.119,175.400 270.407 C 174.520 270.695,174.037 271.010,174.326 271.107 C 176.258 271.756,186.400 263.829,186.400 261.670 C 186.400 261.279,186.613 260.747,186.873 260.487 C 187.134 260.226,187.247 259.914,187.126 259.792 C 187.004 259.671,186.583 260.253,186.190 261.086 M148.800 260.322 C 148.800 260.531,149.070 260.926,149.400 261.200 C 149.730 261.474,150.000 261.917,150.000 262.185 C 150.000 262.918,155.553 268.412,156.966 269.077 C 157.645 269.396,158.892 270.014,159.738 270.450 C 160.583 270.885,161.483 271.168,161.738 271.077 C 161.992 270.987,161.435 270.679,160.500 270.393 C 159.565 270.107,158.800 269.734,158.800 269.564 C 158.800 269.393,158.441 269.140,158.003 269.001 C 156.559 268.543,153.259 265.644,151.515 263.302 C 149.453 260.535,148.800 259.817,148.800 260.322 M199.738 263.100 C 198.416 266.294,197.586 267.961,197.201 268.199 C 196.980 268.336,196.800 268.627,196.800 268.847 C 196.800 270.223,199.020 266.495,200.145 263.229 C 200.850 261.184,200.568 261.095,199.738 263.100 M233.035 263.188 C 234.092 264.062,235.042 264.692,235.145 264.588 C 235.249 264.485,235.258 264.348,235.167 264.284 C 235.075 264.221,234.319 263.591,233.486 262.884 C 232.653 262.178,231.779 261.600,231.543 261.600 C 231.306 261.600,231.978 262.315,233.035 263.188 M136.920 264.000 C 136.920 265.210,136.995 265.705,137.087 265.100 C 137.178 264.495,137.178 263.505,137.087 262.900 C 136.995 262.295,136.920 262.790,136.920 264.000 M235.633 264.930 C 235.725 265.001,236.430 265.466,237.200 265.963 L 238.600 266.866 237.400 265.835 C 236.740 265.268,236.035 264.803,235.833 264.802 C 235.632 264.801,235.542 264.858,235.633 264.930 M278.800 265.157 C 278.800 265.353,278.350 265.626,277.800 265.764 C 277.250 265.902,276.800 266.178,276.800 266.377 C 276.800 266.576,277.340 266.469,278.000 266.140 C 279.023 265.630,279.642 264.800,279.000 264.800 C 278.890 264.800,278.800 264.960,278.800 265.157 M137.216 266.600 C 137.210 266.820,137.647 267.540,138.188 268.200 C 138.729 268.860,139.177 269.220,139.184 269.000 C 139.190 268.780,138.753 268.060,138.212 267.400 C 137.671 266.740,137.223 266.380,137.216 266.600 M239.424 267.387 C 239.851 267.710,240.479 267.980,240.820 267.987 C 241.161 267.994,241.682 268.225,241.979 268.500 C 242.348 268.843,242.433 268.851,242.251 268.525 C 241.960 268.007,239.729 266.800,239.062 266.800 C 238.834 266.800,238.996 267.064,239.424 267.387 M274.800 267.224 C 274.470 267.431,273.680 267.785,273.045 268.011 C 272.409 268.237,271.984 268.518,272.101 268.634 C 272.310 268.844,276.000 267.256,276.000 266.956 C 276.000 266.698,275.438 266.823,274.800 267.224 M244.224 269.387 C 244.651 269.710,245.549 269.980,246.220 269.987 C 246.891 269.994,247.640 270.200,247.885 270.445 C 248.130 270.690,248.571 270.801,248.865 270.693 C 249.604 270.420,247.451 269.600,245.998 269.600 C 245.365 269.600,244.736 269.420,244.600 269.200 C 244.464 268.980,244.149 268.800,243.900 268.800 C 243.651 268.800,243.796 269.064,244.224 269.387 M269.407 269.188 C 269.275 269.402,268.270 269.696,267.175 269.841 C 266.079 269.987,265.069 270.288,264.931 270.511 C 264.664 270.944,265.450 270.805,269.100 269.772 C 270.255 269.445,271.200 269.093,271.200 268.989 C 271.200 268.629,269.646 268.802,269.407 269.188 M139.200 269.865 C 139.200 270.590,143.044 274.850,146.004 277.405 C 148.367 279.444,154.609 283.124,155.016 282.717 C 155.140 282.593,154.377 282.080,153.321 281.577 C 150.626 280.293,147.702 278.382,145.643 276.557 C 144.677 275.701,143.552 274.709,143.143 274.353 C 142.735 273.997,142.400 273.502,142.400 273.253 C 142.400 273.004,142.259 272.800,142.086 272.800 C 141.913 272.800,141.193 272.047,140.486 271.127 C 139.779 270.207,139.200 269.639,139.200 269.865 M195.627 270.762 C 194.732 272.019,194.562 272.594,195.203 272.198 C 195.647 271.924,196.930 269.600,196.638 269.600 C 196.537 269.600,196.082 270.123,195.627 270.762 M254.200 271.247 C 256.180 271.416,259.060 271.420,260.600 271.256 C 262.823 271.019,262.082 270.956,257.000 270.949 C 251.203 270.941,250.939 270.969,254.200 271.247 M164.554 271.818 C 165.975 272.636,171.271 272.509,172.087 271.638 C 172.516 271.181,172.436 271.145,171.600 271.419 C 170.353 271.828,165.741 271.848,164.400 271.451 C 163.499 271.183,163.514 271.220,164.554 271.818 M188.329 278.134 C 187.520 278.850,185.471 280.139,183.775 281.000 C 182.080 281.860,180.884 282.628,181.119 282.706 C 181.354 282.785,182.142 282.540,182.871 282.163 C 186.019 280.536,191.170 276.776,190.196 276.817 C 189.978 276.826,189.138 277.419,188.329 278.134 M156.800 283.400 C 157.350 283.714,158.194 283.978,158.676 283.986 C 159.158 283.994,159.664 284.180,159.800 284.400 C 159.936 284.620,160.497 284.800,161.047 284.800 C 162.643 284.800,161.782 284.118,159.814 283.823 C 158.827 283.675,157.914 283.384,157.786 283.177 C 157.658 282.970,157.158 282.806,156.676 282.814 C 155.830 282.828,155.834 282.848,156.800 283.400 M179.029 283.154 C 178.908 283.348,178.002 283.629,177.014 283.777 C 176.027 283.925,175.096 284.244,174.947 284.486 C 174.761 284.787,174.979 284.833,175.637 284.631 C 176.167 284.468,177.050 284.234,177.600 284.110 C 178.728 283.855,180.429 282.800,179.713 282.800 C 179.457 282.800,179.149 282.959,179.029 283.154 " class="coloracdcdc svgShape"></path><path fill="#0f9d58" fill-rule="evenodd" d="M0.000 200.000 L 0.000 400.000 200.000 400.000 L 400.000 400.000 400.000 200.000 L 400.000 0.000 200.000 0.000 L 0.000 0.000 0.000 200.000 M352.200 195.600 L 352.200 338.200 209.600 338.200 L 67.000 338.200 66.899 195.499 L 66.799 52.799 209.499 52.899 L 352.200 53.000 352.200 195.600 M83.200 195.601 L 83.200 322.001 209.500 321.901 L 335.800 321.800 335.901 195.500 L 336.001 69.200 209.601 69.200 L 83.200 69.200 83.200 195.601 M216.296 105.817 C 217.668 105.952,218.894 106.229,219.019 106.431 C 219.145 106.634,219.672 106.800,220.191 106.800 C 221.151 106.800,223.690 107.954,223.933 108.500 C 224.007 108.665,224.307 108.800,224.601 108.800 C 225.144 108.800,227.634 110.002,228.000 110.440 C 228.110 110.572,228.926 111.135,229.813 111.690 C 231.794 112.931,237.197 118.193,237.207 118.892 C 237.211 119.171,237.661 119.824,238.207 120.342 C 238.753 120.860,239.200 121.606,239.200 121.999 C 239.200 122.393,239.441 122.807,239.735 122.920 C 240.371 123.164,242.074 126.671,242.785 129.200 C 243.063 130.190,243.496 131.433,243.746 131.961 C 244.406 133.360,244.367 147.394,243.700 148.060 C 243.425 148.335,243.200 149.053,243.200 149.656 C 243.200 150.259,243.020 150.864,242.800 151.000 C 242.580 151.136,242.400 151.524,242.400 151.862 C 242.400 155.121,231.518 169.200,228.999 169.200 C 228.746 169.200,228.117 169.650,227.600 170.200 C 227.083 170.750,226.377 171.206,226.030 171.213 C 225.684 171.220,225.051 171.490,224.624 171.813 C 224.196 172.136,223.442 172.400,222.947 172.400 C 222.452 172.400,221.936 172.580,221.800 172.800 C 221.664 173.020,221.068 173.206,220.476 173.213 C 219.884 173.220,219.051 173.490,218.624 173.813 C 218.196 174.136,217.262 174.400,216.547 174.400 C 215.832 174.400,215.136 174.580,215.000 174.800 C 214.494 175.618,120.263 175.321,119.786 174.500 C 119.555 174.102,119.389 171.042,119.400 167.400 L 119.419 161.000 164.587 160.898 C 198.797 160.821,209.826 160.682,210.047 160.324 C 210.265 159.970,210.514 159.996,211.035 160.426 C 211.570 160.868,211.769 160.885,211.898 160.500 C 211.991 160.225,212.637 159.999,213.333 159.998 C 214.030 159.996,215.116 159.726,215.746 159.398 C 216.376 159.069,217.321 158.800,217.846 158.800 C 218.371 158.800,218.800 158.632,218.800 158.427 C 218.800 158.222,219.180 157.933,219.644 157.786 C 221.528 157.188,226.023 152.626,227.315 150.000 C 227.802 149.010,228.335 148.140,228.500 148.067 C 228.665 147.993,228.800 147.174,228.800 146.247 C 228.800 145.319,229.019 144.341,229.286 144.074 C 229.594 143.766,229.771 142.281,229.771 140.000 C 229.771 137.719,229.594 136.234,229.286 135.926 C 229.019 135.659,228.800 134.842,228.800 134.110 C 228.800 130.163,220.262 121.200,216.502 121.200 C 216.262 121.200,215.992 120.975,215.900 120.701 C 215.664 119.992,204.651 119.991,203.941 120.700 C 203.665 120.975,203.022 121.200,202.512 121.200 C 202.002 121.200,200.871 121.650,200.000 122.200 C 199.129 122.750,198.271 123.200,198.094 123.200 C 196.722 123.200,191.784 129.471,190.220 133.200 C 187.982 138.535,182.341 140.072,178.572 136.373 C 177.598 135.416,176.800 134.322,176.800 133.940 C 176.800 133.559,176.620 133.136,176.400 133.000 C 176.180 132.864,176.000 131.964,176.000 131.000 C 176.000 130.036,176.180 129.136,176.400 129.000 C 176.620 128.864,176.800 128.245,176.800 127.625 C 176.800 127.005,177.070 126.274,177.400 126.000 C 177.730 125.726,178.000 125.164,178.000 124.751 C 178.000 124.338,178.180 124.000,178.400 124.000 C 178.620 124.000,178.800 123.671,178.800 123.270 C 178.800 122.868,179.250 122.117,179.800 121.600 C 180.350 121.083,180.800 120.422,180.800 120.129 C 180.800 119.500,188.109 112.000,188.721 112.000 C 188.953 112.000,189.441 111.702,189.806 111.337 C 190.816 110.327,197.977 106.800,199.017 106.800 C 199.521 106.800,199.995 106.614,200.071 106.387 C 200.342 105.574,210.276 105.226,216.296 105.817 M260.102 188.500 C 260.230 188.881,260.444 188.857,261.000 188.400 C 261.556 187.943,261.770 187.919,261.898 188.300 C 262.009 188.629,262.927 188.800,264.588 188.800 C 266.046 188.800,267.592 189.052,268.254 189.398 C 268.884 189.726,269.704 189.996,270.076 189.998 C 270.448 189.999,270.864 190.180,271.000 190.400 C 271.136 190.620,271.672 190.800,272.191 190.800 C 273.151 190.800,275.690 191.954,275.933 192.500 C 276.007 192.665,276.307 192.800,276.601 192.800 C 277.243 192.800,279.745 194.077,279.933 194.500 C 280.007 194.665,280.322 194.800,280.633 194.800 C 280.945 194.800,281.200 194.968,281.200 195.173 C 281.200 195.378,281.548 195.657,281.974 195.792 C 282.867 196.075,292.000 204.966,292.000 205.552 C 292.000 205.767,292.298 206.241,292.663 206.606 C 293.625 207.567,297.198 214.749,297.213 215.750 C 297.220 216.218,297.490 216.949,297.813 217.376 C 298.136 217.804,298.400 218.558,298.400 219.053 C 298.400 219.548,298.580 220.064,298.800 220.200 C 299.020 220.336,299.200 222.021,299.200 223.944 C 299.200 226.130,299.380 227.620,299.680 227.920 C 300.048 228.288,300.050 228.510,299.690 228.870 C 299.338 229.222,299.334 229.479,299.673 229.887 C 300.011 230.295,300.009 230.551,299.663 230.897 C 299.373 231.187,299.200 232.887,299.200 235.456 C 299.200 237.756,299.025 239.661,298.800 239.800 C 298.580 239.936,298.400 240.452,298.400 240.947 C 298.400 241.442,298.136 242.196,297.813 242.624 C 297.490 243.051,297.220 243.782,297.213 244.250 C 297.198 245.251,293.625 252.433,292.663 253.394 C 292.298 253.759,292.000 254.226,292.000 254.433 C 292.000 255.044,282.968 263.893,282.046 264.185 C 281.581 264.333,281.200 264.622,281.200 264.827 C 281.200 265.032,280.899 265.200,280.531 265.200 C 280.164 265.200,279.572 265.464,279.216 265.786 C 278.135 266.764,273.200 269.199,272.271 269.213 C 271.792 269.220,271.051 269.490,270.624 269.813 C 270.196 270.136,269.442 270.400,268.947 270.400 C 268.452 270.400,267.936 270.580,267.800 270.800 C 267.664 271.020,266.609 271.200,265.456 271.200 C 264.303 271.200,263.151 271.409,262.896 271.664 C 262.315 272.245,251.808 272.266,251.092 271.687 C 250.821 271.469,249.880 271.187,249.000 271.060 C 245.380 270.541,244.406 270.289,243.965 269.758 C 243.710 269.451,243.164 269.200,242.752 269.200 C 241.818 269.200,236.668 266.605,235.997 265.796 C 235.725 265.468,235.266 265.200,234.978 265.200 C 234.689 265.200,233.542 264.312,232.428 263.227 C 231.314 262.143,230.042 261.140,229.602 261.000 C 229.161 260.861,228.800 260.520,228.800 260.244 C 228.800 259.968,227.900 258.778,226.800 257.600 C 225.700 256.422,224.800 255.297,224.800 255.101 C 224.800 254.904,224.575 254.510,224.300 254.225 C 222.881 252.754,222.000 251.536,222.000 251.046 C 222.000 250.745,221.730 250.274,221.400 250.000 C 221.070 249.726,220.800 249.164,220.800 248.751 C 220.800 248.338,220.636 248.000,220.435 248.000 C 220.234 248.000,219.949 247.280,219.800 246.400 C 219.651 245.520,219.366 244.800,219.165 244.800 C 218.964 244.800,218.800 243.384,218.800 241.653 L 218.800 238.505 220.653 236.653 C 221.930 235.375,222.836 234.800,223.573 234.800 C 224.160 234.800,224.879 234.575,225.170 234.300 C 225.594 233.900,225.737 233.900,225.883 234.300 C 225.984 234.575,226.595 234.800,227.241 234.800 C 229.975 234.800,234.400 240.020,234.400 243.244 C 234.400 243.660,234.547 244.000,234.726 244.000 C 234.906 244.000,235.441 244.675,235.916 245.500 C 236.391 246.325,237.325 247.609,237.990 248.354 C 238.656 249.099,239.200 249.954,239.200 250.254 C 239.200 250.554,239.479 250.800,239.819 250.800 C 240.160 250.800,240.835 251.223,241.319 251.739 C 242.449 252.944,245.404 254.800,246.192 254.800 C 246.526 254.800,246.800 254.978,246.800 255.195 C 246.800 255.413,247.520 255.706,248.400 255.846 C 249.280 255.987,250.000 256.259,250.000 256.451 C 250.000 256.643,251.249 256.800,252.776 256.800 C 254.303 256.800,255.649 256.955,255.766 257.145 C 255.884 257.335,256.709 257.491,257.600 257.491 C 258.491 257.491,259.316 257.335,259.434 257.145 C 259.551 256.955,260.796 256.800,262.200 256.800 C 263.604 256.800,264.864 256.620,265.000 256.400 C 265.136 256.180,265.552 255.999,265.924 255.998 C 266.296 255.996,267.116 255.726,267.746 255.398 C 268.376 255.069,269.126 254.800,269.412 254.800 C 269.699 254.800,269.993 254.665,270.067 254.500 C 270.140 254.335,271.065 253.778,272.122 253.261 C 274.110 252.290,280.800 245.928,280.800 245.009 C 280.800 244.728,281.070 244.274,281.400 244.000 C 281.730 243.726,282.000 243.164,282.000 242.751 C 282.000 242.338,282.180 242.000,282.400 242.000 C 282.620 242.000,282.800 241.751,282.800 241.446 C 282.800 241.141,283.069 240.376,283.398 239.746 C 283.726 239.116,283.996 238.321,283.998 237.980 C 283.999 237.639,284.225 237.135,284.500 236.860 C 285.178 236.182,285.149 223.789,284.468 223.108 C 284.211 222.851,283.999 222.361,283.998 222.020 C 283.996 221.679,283.726 220.884,283.398 220.254 C 283.069 219.624,282.800 218.874,282.800 218.588 C 282.800 218.301,282.665 218.007,282.500 217.933 C 282.335 217.860,281.782 216.944,281.271 215.898 C 278.992 211.232,270.632 204.935,265.691 204.162 C 264.751 204.015,263.886 203.739,263.768 203.547 C 263.647 203.353,232.074 203.200,192.038 203.200 C 124.417 203.200,120.492 203.162,119.945 202.500 C 119.314 201.738,119.177 190.098,119.783 188.700 C 120.178 187.788,259.795 187.589,260.102 188.500 M174.000 216.400 C 174.000 216.620,174.699 216.800,175.554 216.800 C 176.409 216.800,177.624 217.069,178.254 217.398 C 178.884 217.726,179.704 217.996,180.076 217.998 C 180.448 217.999,180.864 218.180,181.000 218.400 C 181.136 218.620,181.582 218.800,181.990 218.800 C 182.399 218.800,182.793 218.935,182.867 219.100 C 183.033 219.473,185.524 220.800,186.059 220.800 C 186.276 220.800,187.116 221.428,187.927 222.197 C 188.737 222.965,189.551 223.595,189.735 223.597 C 190.245 223.602,195.200 228.466,195.202 228.963 C 195.203 229.204,195.788 230.048,196.502 230.841 C 197.925 232.420,200.400 236.842,200.400 237.805 C 200.400 238.392,200.565 238.811,201.532 240.686 C 201.784 241.174,202.107 242.574,202.251 243.798 C 202.395 245.021,202.667 246.118,202.856 246.235 C 203.341 246.535,203.289 254.698,202.800 255.000 C 202.580 255.136,202.399 256.002,202.398 256.924 C 202.396 257.846,202.126 259.116,201.798 259.746 C 201.469 260.376,201.200 261.310,201.200 261.822 C 201.200 262.334,201.020 262.864,200.800 263.000 C 200.580 263.136,200.400 263.534,200.400 263.884 C 200.400 264.732,198.470 268.644,197.761 269.232 C 197.453 269.488,197.200 269.934,197.200 270.222 C 197.200 272.191,183.912 283.178,181.489 283.213 C 181.000 283.220,180.251 283.490,179.824 283.813 C 179.396 284.136,178.642 284.400,178.147 284.400 C 177.652 284.400,177.136 284.580,177.000 284.800 C 176.864 285.020,175.359 285.200,173.656 285.200 C 171.781 285.200,170.371 285.389,170.080 285.680 C 169.712 286.048,169.490 286.050,169.130 285.690 C 168.778 285.338,168.521 285.334,168.113 285.673 C 167.705 286.011,167.449 286.009,167.103 285.663 C 166.831 285.391,165.344 285.200,163.495 285.200 C 160.570 285.200,156.743 284.373,155.820 283.542 C 155.611 283.354,155.109 283.200,154.704 283.200 C 153.877 283.200,151.168 281.900,150.342 281.106 C 150.044 280.820,149.404 280.409,148.921 280.193 C 146.590 279.152,139.255 271.781,138.859 270.081 C 138.781 269.748,138.286 269.011,137.759 268.442 C 137.231 267.873,136.800 267.091,136.800 266.704 C 136.800 266.317,136.620 266.000,136.400 266.000 C 136.180 266.000,136.000 265.100,136.000 264.000 C 136.000 262.900,136.180 262.000,136.400 262.000 C 136.620 262.000,136.800 261.550,136.800 261.000 C 136.800 260.450,136.977 260.000,137.192 260.000 C 137.408 260.000,137.694 259.566,137.827 259.035 C 137.971 258.460,138.460 257.971,139.035 257.827 C 139.566 257.694,140.000 257.408,140.000 257.192 C 140.000 256.977,140.435 256.800,140.967 256.800 C 141.498 256.800,142.016 256.575,142.117 256.300 C 142.263 255.900,142.406 255.900,142.830 256.300 C 143.121 256.575,144.043 256.800,144.877 256.800 C 146.357 256.800,147.615 257.543,149.165 259.334 C 150.877 261.312,151.200 261.751,151.200 262.103 C 151.200 262.645,156.625 268.000,157.175 268.000 C 157.427 268.000,158.017 268.358,158.487 268.795 C 158.956 269.232,159.939 269.702,160.670 269.840 C 161.402 269.977,162.000 270.249,162.000 270.445 C 162.000 270.640,164.700 270.800,168.000 270.800 C 171.300 270.800,174.000 270.640,174.000 270.445 C 174.000 270.249,174.598 269.977,175.330 269.840 C 176.061 269.702,177.044 269.232,177.513 268.795 C 177.983 268.358,178.611 268.000,178.909 268.000 C 180.373 268.000,186.800 260.173,186.800 258.391 C 186.800 257.982,186.970 257.542,187.177 257.414 C 187.384 257.286,187.677 256.331,187.827 255.291 C 187.978 254.251,188.292 253.161,188.525 252.870 C 188.831 252.486,188.797 252.245,188.400 252.000 C 187.935 251.713,187.935 251.560,188.400 251.000 C 188.762 250.564,188.808 250.247,188.534 250.070 C 188.307 249.921,188.012 248.723,187.879 247.406 C 187.747 246.090,187.450 244.950,187.219 244.873 C 186.989 244.796,186.800 244.118,186.800 243.367 C 186.800 242.615,186.620 242.000,186.400 242.000 C 186.180 242.000,186.000 241.825,186.000 241.612 C 186.000 240.628,181.698 235.200,180.919 235.200 C 180.702 235.200,180.216 234.860,179.840 234.444 C 178.914 233.421,174.572 231.351,172.600 230.991 C 171.720 230.831,159.750 230.633,146.000 230.551 C 132.250 230.468,120.640 230.319,120.199 230.218 C 119.363 230.026,118.957 217.764,119.745 216.489 C 120.136 215.856,174.000 215.768,174.000 216.400 " class="color04acb4 svgShape"></path><path fill="#0f9d58" fill-rule="evenodd" d="M82.985 69.300 C 82.881 69.575,82.842 126.500,82.898 195.800 L 83.001 321.800 83.101 195.501 L 83.200 69.201 209.500 69.100 L 335.800 68.999 209.487 68.899 C 108.732 68.820,83.136 68.901,82.985 69.300 M204.311 105.893 C 205.251 105.978,206.691 105.977,207.511 105.891 C 208.330 105.805,207.560 105.736,205.800 105.737 C 204.040 105.739,203.370 105.809,204.311 105.893 M213.300 105.887 C 213.905 105.978,214.895 105.978,215.500 105.887 C 216.105 105.795,215.610 105.720,214.400 105.720 C 213.190 105.720,212.695 105.795,213.300 105.887 M227.078 170.213 C 226.460 170.756,226.114 171.200,226.308 171.200 C 226.502 171.200,227.083 170.750,227.600 170.200 C 228.795 168.928,228.531 168.934,227.078 170.213 M213.400 174.800 L 211.800 175.086 213.276 175.143 C 214.088 175.174,214.864 175.020,215.000 174.800 C 215.136 174.580,215.192 174.426,215.124 174.457 C 215.056 174.488,214.280 174.642,213.400 174.800 M155.532 203.100 C 174.964 203.157,206.644 203.157,225.932 203.100 C 245.219 203.043,229.320 202.996,190.600 202.996 C 151.880 202.996,136.099 203.043,155.532 203.100 M202.798 250.682 C 202.689 253.147,202.742 255.021,202.915 254.847 C 203.088 254.673,203.177 252.656,203.112 250.365 L 202.996 246.200 202.798 250.682 M252.905 257.087 C 253.514 257.179,254.414 257.177,254.905 257.082 C 255.397 256.987,254.900 256.911,253.800 256.914 C 252.700 256.917,252.297 256.995,252.905 257.087 M260.100 257.076 C 260.485 257.176,261.115 257.176,261.500 257.076 C 261.885 256.975,261.570 256.893,260.800 256.893 C 260.030 256.893,259.715 256.975,260.100 257.076 M182.187 265.300 L 179.800 267.800 182.300 265.413 C 184.622 263.195,184.983 262.800,184.687 262.800 C 184.626 262.800,183.501 263.925,182.187 265.300 M166.500 271.091 C 167.325 271.178,168.675 271.178,169.500 271.091 C 170.325 271.005,169.650 270.934,168.000 270.934 C 166.350 270.934,165.675 271.005,166.500 271.091 M256.705 272.283 C 257.202 272.379,257.922 272.375,258.305 272.275 C 258.687 272.175,258.280 272.096,257.400 272.101 C 256.520 272.105,256.207 272.187,256.705 272.283 " class="color20d0d0 svgShape"></path></svg></g></svg>